<?xml version="1.0" encoding="UTF-8"?>
<svg version="1.1" xmlns="http://www.w3.org/2000/svg" width="16" height="16">
<path d="M0 0 C5.28 0 10.56 0 16 0 C16 5.28 16 10.56 16 16 C10.72 16 5.44 16 0 16 C0 10.72 0 5.44 0 0 Z " fill="#27374A" transform="translate(0,0)"/>
<path d="M0 0 C5.28 0 10.56 0 16 0 C16 1.65 16 3.3 16 5 C12.94730154 6.52634923 10.24154311 5.83794444 6.875 5.5625 C5.59367188 5.46066406 4.31234375 5.35882812 2.9921875 5.25390625 C2.00476563 5.17011719 1.01734375 5.08632812 0 5 C0 3.35 0 1.7 0 0 Z " fill="#1F2F43" transform="translate(0,0)"/>
<path d="M0 0 C-1.98 0.99 -1.98 0.99 -4 2 C-4 2.99 -4 3.98 -4 5 C-3.34 5 -2.68 5 -2 5 C-2.33 5.66 -2.66 6.32 -3 7 C-4.98 7 -6.96 7 -9 7 C-9 6.34 -9 5.68 -9 5 C-8.34 5 -7.68 5 -7 5 C-7 4.34 -7 3.68 -7 3 C-8.65 2.67 -10.3 2.34 -12 2 C-8.09971775 -0.60018816 -4.52565431 -0.15085514 0 0 Z " fill="#D9DBDF" transform="translate(14,5)"/>
</svg>
