<svg xmlns="http://www.w3.org/2000/svg" width="128" height="128"><path fill="#41B9FE" d="M0 0 C42.24 0 84.48 0 128 0 C128 42.24 128 84.48 128 128 C85.76 128 43.52 128 0 128 C0 85.76 0 43.52 0 0 Z"/><path fill="#4F412D" d="M0 0 C2.97 0 5.94 0 9 0 C9.495 2.475 9.495 2.475 10 5 C10.99 5.33 11.98 5.66 13 6 C14 7 14 7 14.0625 10.0625 C14.041875 11.031875 14.02125 12.00125 14 13 C14.969375 12.979375 15.93875 12.95875 16.9375 12.9375 C20 13 20 13 21 14 C21.04063832 15.66617115 21.042721 17.33388095 21 19 C22.98 19 24.96 19 27 19 C27 21.31 27 23.62 27 26 C28.98 26 30.96 26 33 26 C33 27.98 33 29.96 33 32 C34.98 32 36.96 32 39 32 C39 36.29 39 40.58 39 45 C37.02 45 35.04 45 33 45 C35.46800197 49.44173706 35.46800197 49.44173706 39 53 C41.60611077 53.72197162 41.60611077 53.72197162 44 54 C44 54.66 44 55.32 44 56 C44.66 56 45.32 56 46 56 C46.495 58.97 46.495 58.97 47 62 C48.98 62.33 50.96 62.66 53 63 C53 61.02 53 59.04 53 57 C53.66 56.67 54.32 56.34 55 56 C55.65213292 53.97536745 55.65213292 53.97536745 56 52 C57.65 52 59.3 52 61 52 C61 72.13 61 92.26 61 113 C18.76 113 -23.48 113 -67 113 C-67 94.19 -67 75.38 -67 56 C-66.01 56 -65.02 56 -64 56 C-62.66666667 57.33333333 -61.33333333 58.66666667 -60 60 C-57.36777038 61.25436187 -57.36777038 61.25436187 -55 62 C-55 63.32 -55 64.64 -55 66 C-52.03 65.01 -52.03 65.01 -49 64 C-48.67 61.69 -48.34 59.38 -48 57 C-47.34 57 -46.68 57 -46 57 C-46 56.34 -46 55.68 -46 55 C-45.34 55 -44.68 55 -44 55 C-43.855625 54.195625 -43.71125 53.39125 -43.5625 52.5625 C-43 50 -43 50 -42 49 C-41.76924918 47.65252916 -41.58846937 46.29622435 -41.4375 44.9375 C-41.2209375 42.9884375 -41.2209375 42.9884375 -41 41 C-40.34 41 -39.68 41 -39 41 C-39 38.03 -39 35.06 -39 32 C-38.01 31.67 -37.02 31.34 -36 31 C-36 30.34 -36 29.68 -36 29 C-34.35 29 -32.7 29 -31 29 C-31.66 28.505 -32.32 28.01 -33 27.5 C-35.8827217 23.89659788 -35.30200997 21.53014958 -35 17 C-31.35969312 14.6702036 -28.24881273 14.6137443 -24 15 C-22.0625 16.3125 -22.0625 16.3125 -21 18 C-21 18.99 -21 19.98 -21 21 C-19.35 21.33 -17.7 21.66 -16 22 C-16 22.99 -16 23.98 -16 25 C-14.68 25 -13.36 25 -12 25 C-11.67 23.35 -11.34 21.7 -11 20 C-9.02 20 -7.04 20 -5 20 C-5 21.98 -5 23.96 -5 26 C-6.98 26 -8.96 26 -11 26 C-11 27.98 -11 29.96 -11 32 C-13.31 32 -15.62 32 -18 32 C-18 34.31 -18 36.62 -18 39 C-19.98 39 -21.96 39 -24 39 C-24 40.98 -24 42.96 -24 45 C-26.31 45 -28.62 45 -31 45 C-31 46.98 -31 48.96 -31 51 C-32.98 51 -34.96 51 -37 51 C-37 55.29 -37 59.58 -37 64 C-34.69 64 -32.38 64 -30 64 C-30 65.98 -30 67.96 -30 70 C-28.02 70 -26.04 70 -24 70 C-24 72.31 -24 74.62 -24 77 C-22.02 77 -20.04 77 -18 77 C-18 78.98 -18 80.96 -18 83 C-15.69 83 -13.38 83 -11 83 C-11 81.02 -11 79.04 -11 77 C-9.02 77 -7.04 77 -5 77 C-5 74.69 -5 72.38 -5 70 C-3.02 70 -1.04 70 1 70 C1 68.02 1 66.04 1 64 C3.31 64 5.62 64 8 64 C8 62.02 8 60.04 8 58 C9.98 58 11.96 58 14 58 C14 55.69 14 53.38 14 51 C15.98 51 17.96 51 20 51 C20 47.04 20 43.08 20 39 C18.02 39 16.04 39 14 39 C14 36.69 14 34.38 14 32 C12.02 32 10.04 32 8 32 C8 30.02 8 28.04 8 26 C6.02 26 4.04 26 2 26 C2 24.02 2 22.04 2 20 C5.63 20 9.26 20 13 20 C13 18.02 13 16.04 13 14 C11.35 14 9.7 14 8 14 C8 11.69 8 9.38 8 7 C5.69 7 3.38 7 1 7 C1 10.96 1 14.92 1 19 C-0.98 19 -2.96 19 -5 19 C-5 14.71 -5 10.42 -5 6 C-3.35 5.67 -1.7 5.34 0 5 C0 3.35 0 1.7 0 0 Z" transform="translate(67 15)"/><path fill="#4701A5" d="M0 0 C1.32 0.33 2.64 0.66 4 1 C4 1.66 4 2.32 4 3 C4.66 2.67 5.32 2.34 6 2 C8.50236916 1.90711318 10.97662686 1.87417588 13.47900391 1.88647461 C14.6352401 1.88625557 14.6352401 1.88625557 15.81483459 1.8860321 C18.36877229 1.88673011 20.92263751 1.89451725 23.4765625 1.90234375 C25.24490316 1.90420833 27.01324433 1.90563204 28.78158569 1.90663147 C33.44064759 1.9104535 38.09967842 1.92028112 42.75872803 1.93133545 C47.51102274 1.94155631 52.26332247 1.94613054 57.015625 1.95117188 C66.34376586 1.96190366 75.67187549 1.97949793 85 2 C85 9.92 85 17.84 85 26 C42.76 26 0.52 26 -43 26 C-43 18.41 -43 10.82 -43 3 C-28.81 2.67 -14.62 2.34 0 2 C0 1.34 0 0.68 0 0 Z" transform="translate(43 102)"/><path fill="#D7D0AF" d="M0 0 C2.31 0 4.62 0 7 0 C7 2.31 7 4.62 7 7 C8.65 7 10.3 7 12 7 C12 8.98 12 10.96 12 13 C8.37 13 4.74 13 1 13 C1 14.98 1 16.96 1 19 C2.98 19 4.96 19 7 19 C7 20.98 7 22.96 7 25 C8.98 25 10.96 25 13 25 C13 27.31 13 29.62 13 32 C14.98 32 16.96 32 19 32 C19 35.96 19 39.92 19 44 C17.02 44 15.04 44 13 44 C13 46.31 13 48.62 13 51 C11.02 51 9.04 51 7 51 C7 52.98 7 54.96 7 57 C4.69 57 2.38 57 0 57 C0 58.98 0 60.96 0 63 C-1.98 63 -3.96 63 -6 63 C-6 65.31 -6 67.62 -6 70 C-7.98 70 -9.96 70 -12 70 C-12 71.98 -12 73.96 -12 76 C-14.31 76 -16.62 76 -19 76 C-19 74.02 -19 72.04 -19 70 C-20.98 70 -22.96 70 -25 70 C-25 67.69 -25 65.38 -25 63 C-26.98 63 -28.96 63 -31 63 C-31 61.02 -31 59.04 -31 57 C-33.31 57 -35.62 57 -38 57 C-38 52.71 -38 48.42 -38 44 C-36.02 44 -34.04 44 -32 44 C-32 42.02 -32 40.04 -32 38 C-29.69 38 -27.38 38 -25 38 C-25 36.02 -25 34.04 -25 32 C-23.02 32 -21.04 32 -19 32 C-19 29.69 -19 27.38 -19 25 C-16.69 25 -14.38 25 -12 25 C-12 23.02 -12 21.04 -12 19 C-10.02 19 -8.04 19 -6 19 C-6 16.69 -6 14.38 -6 12 C-4.02 12 -2.04 12 0 12 C0 8.04 0 4.08 0 0 Z" transform="translate(68 22)"/><path fill="#38382C" d="M0 0 C2.97 0 5.94 0 9 0 C9.33 1.65 9.66 3.3 10 5 C10.99 5.33 11.98 5.66 13 6 C14 7 14 7 14.0625 10.0625 C14.041875 11.031875 14.02125 12.00125 14 13 C14.969375 12.979375 15.93875 12.95875 16.9375 12.9375 C20 13 20 13 21 14 C21.04063832 15.66617115 21.042721 17.33388095 21 19 C22.98 19 24.96 19 27 19 C27 21.31 27 23.62 27 26 C28.98 26 30.96 26 33 26 C33 27.98 33 29.96 33 32 C34.98 32 36.96 32 39 32 C39 36.29 39 40.58 39 45 C37.02 45 35.04 45 33 45 C35.46800197 49.44173706 35.46800197 49.44173706 39 53 C41.60611077 53.72197162 41.60611077 53.72197162 44 54 C44 54.66 44 55.32 44 56 C44.66 56 45.32 56 46 56 C46.495 58.97 46.495 58.97 47 62 C49.97 62.495 49.97 62.495 53 63 C53 61.02 53 59.04 53 57 C53.66 56.67 54.32 56.34 55 56 C55.65213292 53.97536745 55.65213292 53.97536745 56 52 C57.65 52 59.3 52 61 52 C61 60.25 61 68.5 61 77 C60.67 76.34 60.34 75.68 60 75 C58.68 75 57.36 75 56 75 C56 75.99 56 76.98 56 78 C53.69 77.67 51.38 77.34 49 77 C49 76.34 49 75.68 49 75 C47.68 74.67 46.36 74.34 45 74 C45 72.68 45 71.36 45 70 C42.03 69.505 42.03 69.505 39 69 C39.495 73.455 39.495 73.455 40 78 C37.36 78 34.72 78 32 78 C32 76.35 32 74.7 32 73 C32.99 73 33.98 73 35 73 C35.495 71.02 35.495 71.02 36 69 C33.69 69 31.38 69 29 69 C29.33 70.65 29.66 72.3 30 74 C27.525 74.495 27.525 74.495 25 75 C25 73.02 25 71.04 25 69 C22.69 69 20.38 69 18 69 C18 67.68 18 66.36 18 65 C13.545 65.495 13.545 65.495 9 66 C9.185625 67.11375 9.37125 68.2275 9.5625 69.375 C10 73 10 73 9 75 C7.02 75 5.04 75 3 75 C3 73.68 3 72.36 3 71 C0.36 71 -2.28 71 -5 71 C-5 70.67 -5 70.34 -5 70 C-3.02 70 -1.04 70 1 70 C1 68.02 1 66.04 1 64 C3.31 64 5.62 64 8 64 C8 62.02 8 60.04 8 58 C9.98 58 11.96 58 14 58 C14 55.69 14 53.38 14 51 C15.98 51 17.96 51 20 51 C20 47.04 20 43.08 20 39 C18.02 39 16.04 39 14 39 C14 36.69 14 34.38 14 32 C12.02 32 10.04 32 8 32 C8 30.02 8 28.04 8 26 C6.02 26 4.04 26 2 26 C2 24.02 2 22.04 2 20 C5.63 20 9.26 20 13 20 C13 18.02 13 16.04 13 14 C11.35 14 9.7 14 8 14 C8 11.69 8 9.38 8 7 C5.69 7 3.38 7 1 7 C1 10.96 1 14.92 1 19 C-0.98 19 -2.96 19 -5 19 C-5 14.71 -5 10.42 -5 6 C-3.35 5.67 -1.7 5.34 0 5 C0 3.35 0 1.7 0 0 Z" transform="translate(67 15)"/><path fill="#504F32" d="M0 0 C1.9375 1.3125 1.9375 1.3125 3 3 C3 3.99 3 4.98 3 6 C5.475 6.495 5.475 6.495 8 7 C8 7.99 8 8.98 8 10 C9.32 10 10.64 10 12 10 C12.33 8.35 12.66 6.7 13 5 C14.98 5 16.96 5 19 5 C19 6.98 19 8.96 19 11 C17.02 11 15.04 11 13 11 C13 12.98 13 14.96 13 17 C10.69 17 8.38 17 6 17 C6 19.31 6 21.62 6 24 C4.02 24 2.04 24 0 24 C0 25.98 0 27.96 0 30 C-2.31 30 -4.62 30 -7 30 C-7 31.98 -7 33.96 -7 36 C-8.98 36 -10.96 36 -13 36 C-13 40.29 -13 44.58 -13 49 C-10.69 49 -8.38 49 -6 49 C-6 50.98 -6 52.96 -6 55 C-4.02 55 -2.04 55 0 55 C0 57.31 0 59.62 0 62 C1.98 62 3.96 62 6 62 C6 63.98 6 65.96 6 68 C4.02 68 2.04 68 0 68 C0 67.34 0 66.68 0 66 C-14.19 66 -28.38 66 -43 66 C-43 57.75 -43 49.5 -43 41 C-42.01 41 -41.02 41 -40 41 C-38.66666667 42.33333333 -37.33333333 43.66666667 -36 45 C-33.36777038 46.25436187 -33.36777038 46.25436187 -31 47 C-31 48.32 -31 49.64 -31 51 C-29.02 50.34 -27.04 49.68 -25 49 C-24.67 46.69 -24.34 44.38 -24 42 C-23.34 42 -22.68 42 -22 42 C-22 41.34 -22 40.68 -22 40 C-21.34 40 -20.68 40 -20 40 C-19.855625 39.195625 -19.71125 38.39125 -19.5625 37.5625 C-19 35 -19 35 -18 34 C-17.76924918 32.65252916 -17.58846937 31.29622435 -17.4375 29.9375 C-17.293125 28.638125 -17.14875 27.33875 -17 26 C-16.34 26 -15.68 26 -15 26 C-15 23.03 -15 20.06 -15 17 C-14.01 16.67 -13.02 16.34 -12 16 C-12 15.34 -12 14.68 -12 14 C-10.35 14 -8.7 14 -7 14 C-7.66 13.505 -8.32 13.01 -9 12.5 C-11.8827217 8.89659788 -11.30200997 6.53014958 -11 2 C-7.35969312 -0.3297964 -4.24881273 -0.3862557 0 0 Z" transform="translate(43 30)"/><path fill="#52B8F6" d="M0 0 C0 16.17 0 32.34 0 49 C-2.475 49.495 -2.475 49.495 -5 50 C-5.33 51.32 -5.66 52.64 -6 54 C-6.66 54 -7.32 54 -8 54 C-8 55.98 -8 57.96 -8 60 C-9.99954746 60.04254356 -12.00041636 60.04080783 -14 60 C-15 59 -15 59 -15.0625 55.9375 C-15.041875 54.968125 -15.02125 53.99875 -15 53 C-15.66 53 -16.32 53 -17 53 C-17 52.34 -17 51.68 -17 51 C-17.70125 51.12375 -18.4025 51.2475 -19.125 51.375 C-22.91651035 50.88045517 -24.25717486 49.26409114 -26.86328125 46.60546875 C-28 45 -28 45 -28 42 C-26.02 42 -24.04 42 -22 42 C-22 37.71 -22 33.42 -22 29 C-23.98 29 -25.96 29 -28 29 C-28 27.02 -28 25.04 -28 23 C-29.98 23 -31.96 23 -34 23 C-34 20.69 -34 18.38 -34 16 C-35.98 16 -37.96 16 -40 16 C-40.33 14.35 -40.66 12.7 -41 11 C-43.97 10.505 -43.97 10.505 -47 10 C-47 8.02 -47 6.04 -47 4 C-46.67 4 -46.34 4 -46 4 C-46 5.65 -46 7.3 -46 9 C-44.02 9 -42.04 9 -40 9 C-39.67 10.65 -39.34 12.3 -39 14 C-37.35 13.67 -35.7 13.34 -34 13 C-32.58622659 15.63904371 -31.62759865 18.07120629 -31 21 C-30.34 21 -29.68 21 -29 21 C-28.67 20.34 -28.34 19.68 -28 19 C-27.01 19.33 -26.02 19.66 -25 20 C-24.67 16.7 -24.34 13.4 -24 10 C-19.05 9.34 -14.1 8.68 -9 8 C-9 6.02 -9 4.04 -9 2 C-5.62902617 0.50178941 -3.79557881 0 0 0 Z" transform="translate(128 18)"/><path fill="#D9D2B0" d="M0 0 C0.99 0.33 1.98 0.66 3 1 C3 2.65 3 4.3 3 6 C1.02 6.99 1.02 6.99 -1 8 C-1 11.3 -1 14.6 -1 18 C1.31 18 3.62 18 6 18 C6 20.31 6 22.62 6 25 C7.98 24.67 9.96 24.34 12 24 C12 30.6 12 37.2 12 44 C10.02 44 8.04 44 6 44 C6 45.98 6 47.96 6 50 C3.69 50 1.38 50 -1 50 C-1 48.02 -1 46.04 -1 44 C-2.98 44 -4.96 44 -7 44 C-7 41.69 -7 39.38 -7 37 C-8.98 37 -10.96 37 -13 37 C-13 35.02 -13 33.04 -13 31 C-15.31 31 -17.62 31 -20 31 C-20 26.71 -20 22.42 -20 18 C-18.02 18 -16.04 18 -14 18 C-14 16.02 -14 14.04 -14 12 C-11.69 12 -9.38 12 -7 12 C-7 10.02 -7 8.04 -7 6 C-4.69 6 -2.38 6 0 6 C0 4.02 0 2.04 0 0 Z" transform="translate(50 48)"/><path fill="#053D0A" d="M0 0 C1.65 0 3.3 0 5 0 C5 8.25 5 16.5 5 25 C4.505 24.01 4.505 24.01 4 23 C2.68 23 1.36 23 0 23 C0 23.99 0 24.98 0 26 C-2.31 25.67 -4.62 25.34 -7 25 C-7 24.34 -7 23.68 -7 23 C-8.32 22.67 -9.64 22.34 -11 22 C-11 20.68 -11 19.36 -11 18 C-12.98 17.67 -14.96 17.34 -17 17 C-16.67 19.97 -16.34 22.94 -16 26 C-18.64 26 -21.28 26 -24 26 C-24 24.35 -24 22.7 -24 21 C-23.01 21 -22.02 21 -21 21 C-20.67 19.68 -20.34 18.36 -20 17 C-22.31 17 -24.62 17 -27 17 C-26.67 18.65 -26.34 20.3 -26 22 C-27.65 22.33 -29.3 22.66 -31 23 C-31 21.02 -31 19.04 -31 17 C-33.31 17 -35.62 17 -38 17 C-38.33 15.02 -38.66 13.04 -39 11 C-37.35 10.67 -35.7 10.34 -34 10 C-33.67 8.02 -33.34 6.04 -33 4 C-25.41 4 -17.82 4 -10 4 C-9.67 5.98 -9.34 7.96 -9 10 C-6.03 10.495 -6.03 10.495 -3 11 C-3 9.02 -3 7.04 -3 5 C-2.34 4.67 -1.68 4.34 -1 4 C-0.34786708 1.97536745 -0.34786708 1.97536745 0 0 Z" transform="translate(123 67)"/><path fill="#355140" d="M0 0 C1.9375 1.3125 1.9375 1.3125 3 3 C3 3.99 3 4.98 3 6 C5.475 6.495 5.475 6.495 8 7 C8 7.99 8 8.98 8 10 C9.32 10 10.64 10 12 10 C12.33 8.35 12.66 6.7 13 5 C14.98 5 16.96 5 19 5 C19 6.98 19 8.96 19 11 C17.02 11 15.04 11 13 11 C13 12.98 13 14.96 13 17 C10.69 17 8.38 17 6 17 C6 19.31 6 21.62 6 24 C4.02 24 2.04 24 0 24 C0 25.98 0 27.96 0 30 C-2.31 30 -4.62 30 -7 30 C-7 31.98 -7 33.96 -7 36 C-10.96 36 -14.92 36 -19 36 C-18.34 32.7 -17.68 29.4 -17 26 C-16.34 26 -15.68 26 -15 26 C-15 23.03 -15 20.06 -15 17 C-14.01 16.67 -13.02 16.34 -12 16 C-12 15.34 -12 14.68 -12 14 C-10.35 14 -8.7 14 -7 14 C-7.66 13.505 -8.32 13.01 -9 12.5 C-11.8827217 8.89659788 -11.30200997 6.53014958 -11 2 C-7.35969312 -0.3297964 -4.24881273 -0.3862557 0 0 Z" transform="translate(43 30)"/><path fill="#BBB39A" d="M0 0 C2.97 0 5.94 0 9 0 C9.33 1.65 9.66 3.3 10 5 C10.99 5.33 11.98 5.66 13 6 C14 7 14 7 14.0625 10.0625 C14.041875 11.031875 14.02125 12.00125 14 13 C14.969375 12.979375 15.93875 12.95875 16.9375 12.9375 C20 13 20 13 21 14 C21.04063832 15.66617115 21.042721 17.33388095 21 19 C22.98 19 24.96 19 27 19 C27 25.6 27 32.2 27 39 C22.71 39 18.42 39 14 39 C14 36.69 14 34.38 14 32 C12.02 32 10.04 32 8 32 C8 30.02 8 28.04 8 26 C6.02 26 4.04 26 2 26 C2 24.02 2 22.04 2 20 C5.63 20 9.26 20 13 20 C13 18.02 13 16.04 13 14 C11.35 14 9.7 14 8 14 C8 11.69 8 9.38 8 7 C5.69 7 3.38 7 1 7 C1 10.96 1 14.92 1 19 C-0.98 19 -2.96 19 -5 19 C-5 14.71 -5 10.42 -5 6 C-3.35 5.67 -1.7 5.34 0 5 C0 3.35 0 1.7 0 0 Z" transform="translate(67 15)"/><path fill="#88C2F7" d="M0 0 C0 6.6 0 13.2 0 20 C-1.65 20.33 -3.3 20.66 -5 21 C-5.33 22.32 -5.66 23.64 -6 25 C-6.66 25 -7.32 25 -8 25 C-8 26.98 -8 28.96 -8 31 C-9.99954746 31.04254356 -12.00041636 31.04080783 -14 31 C-15 30 -15 30 -15.0625 26.9375 C-15.0315625 25.4834375 -15.0315625 25.4834375 -15 24 C-15.66 24 -16.32 24 -17 24 C-17 23.34 -17 22.68 -17 22 C-17.70125 22.12375 -18.4025 22.2475 -19.125 22.375 C-22.91651035 21.88045517 -24.25717486 20.26409114 -26.86328125 17.60546875 C-28 16 -28 16 -28 13 C-25.69 13 -23.38 13 -21 13 C-21 9.37 -21 5.74 -21 2 C-19.00133314 1.65876419 -17.00097458 1.3274322 -15 1 C-13.329375 0.7215625 -13.329375 0.7215625 -11.625 0.4375 C-8 0 -8 0 0 0 Z" transform="translate(128 47)"/><path fill="#917C86" d="M0 0 C14.19 0 28.38 0 43 0 C43 0.66 43 1.32 43 2 C44.98 2 46.96 2 49 2 C49 4.31 49 6.62 49 9 C48.34 9 47.68 9 47 9 C47 8.34 47 7.68 47 7 C45.68 6.67 44.36 6.34 43 6 C43.495 7.485 43.495 7.485 44 9 C29.48 9 14.96 9 0 9 C0 6.03 0 3.06 0 0 Z" transform="translate(0 96)"/><path fill="#9B947F" d="M0 0 C0.33 0 0.66 0 1 0 C0.67 4.29 0.34 8.58 0 13 C2.31 13 4.62 13 7 13 C7 14.98 7 16.96 7 19 C8.2065625 18.9690625 8.2065625 18.9690625 9.4375 18.9375 C12 19 12 19 13 20 C13 21.65 13 23.3 13 25 C17.29 25 21.58 25 26 25 C26 27.31 26 29.62 26 32 C24.02 32 22.04 32 20 32 C20 33.98 20 35.96 20 38 C17.69 38 15.38 38 13 38 C13 36.02 13 34.04 13 32 C11.02 32 9.04 32 7 32 C7 29.69 7 27.38 7 25 C5.02 25 3.04 25 1 25 C1 23.02 1 21.04 1 19 C-1.31 19 -3.62 19 -6 19 C-6 14.71 -6 10.42 -6 6 C-4.02 6 -2.04 6 0 6 C0 4.02 0 2.04 0 0 Z" transform="translate(36 60)"/><path fill="#494A32" d="M0 0 C0.33 0 0.66 0 1 0 C1.495 6.93 1.495 6.93 2 14 C3.65 14 5.3 14 7 14 C7 16.31 7 18.62 7 21 C5.35 21.66 3.7 22.32 2 23 C1.01 22.01 0.02 21.02 -1 20 C-1.33 20.66 -1.66 21.32 -2 22 C-2.28875 21.195625 -2.5775 20.39125 -2.875 19.5625 C-3.73262568 16.8673532 -3.73262568 16.8673532 -6 16 C-6.99 18.475 -6.99 18.475 -8 21 C-7.34 21.66 -6.68 22.32 -6 23 C-11.88623674 23.85617989 -16.87678086 24 -23 24 C-23 17.73 -23 11.46 -23 5 C-22.01 5 -21.02 5 -20 5 C-18.66666667 6.33333333 -17.33333333 7.66666667 -16 9 C-13.36777038 10.25436187 -13.36777038 10.25436187 -11 11 C-11 12.32 -11 13.64 -11 15 C-9.02 14.34 -7.04 13.68 -5 13 C-4.67 10.69 -4.34 8.38 -4 6 C-3.34 6 -2.68 6 -2 6 C-2 5.34 -2 4.68 -2 4 C-1.34 4 -0.68 4 0 4 C0 2.68 0 1.36 0 0 Z" transform="translate(23 66)"/><path fill="#C7BFA2" d="M0 0 C1.98 0 3.96 0 6 0 C6 1.98 6 3.96 6 6 C7.98 6 9.96 6 12 6 C12 7.98 12 9.96 12 12 C12.886875 11.979375 13.77375 11.95875 14.6875 11.9375 C17.62169631 11.99286219 20.15493696 12.3305734 23 13 C23.33 11.02 23.66 9.04 24 7 C22.35 7 20.7 7 19 7 C19 6.67 19 6.34 19 6 C20.98 6 22.96 6 25 6 C25 8.31 25 10.62 25 13 C26.98 13 28.96 13 31 13 C31 16.96 31 20.92 31 25 C29.02 25 27.04 25 25 25 C25 27.31 25 29.62 25 32 C23.02 32 21.04 32 19 32 C19 27.71 19 23.42 19 19 C16.69 19 14.38 19 12 19 C12 17.02 12 15.04 12 13 C10.35 13 8.7 13 7 13 C6.34 11.02 5.68 9.04 5 7 C3.35 6.67 1.7 6.34 0 6 C0 4.02 0 2.04 0 0 Z" transform="translate(56 41)"/><path fill="#92D1FD" d="M0 0 C0 5.61 0 11.22 0 17 C-5.28 17.33 -10.56 17.66 -16 18 C-16 18.66 -16 19.32 -16 20 C-17.65 19.67 -19.3 19.34 -21 19 C-21.33 18.01 -21.66 17.02 -22 16 C-22.66 16 -23.32 16 -24 16 C-24 14.02 -24 12.04 -24 10 C-19.05 9.34 -14.1 8.68 -9 8 C-9 6.02 -9 4.04 -9 2 C-5.62902617 0.50178941 -3.79557881 0 0 0 Z" transform="translate(128 18)"/><path fill="#3B3924" d="M0 0 C0 4.29 0 8.58 0 13 C2.31 13 4.62 13 7 13 C7 14.98 7 16.96 7 19 C8.98 19 10.96 19 13 19 C13 21.31 13 23.62 13 26 C14.98 26 16.96 26 19 26 C19 27.98 19 29.96 19 32 C17.02 32 15.04 32 13 32 C12.34 30.35 11.68 28.7 11 27 C5.29014022 26.25983299 -0.24186425 25.89530662 -6 26 C-5.25 24.0625 -5.25 24.0625 -4 22 C-1.875 21.25 -1.875 21.25 0 21 C0 18.69 0 16.38 0 14 C-1.65 14 -3.3 14 -5 14 C-6.38226016 11.23547967 -6.09525387 8.9538637 -6.0625 5.875 C-6.05347656 4.77929688 -6.04445313 3.68359375 -6.03515625 2.5546875 C-6.02355469 1.71164063 -6.01195313 0.86859375 -6 0 C-3 -1 -3 -1 0 0 Z" transform="translate(30 66)"/><path fill="#524E35" d="M0 0 C0.33 0 0.66 0 1 0 C1 3.96 1 7.92 1 12 C1.99 12 2.98 12 4 12 C3.85892253 13.45880109 3.71197585 14.91703551 3.5625 16.375 C3.48128906 17.18710938 3.40007812 17.99921875 3.31640625 18.8359375 C3 21 3 21 2 23 C0.66666667 23.33333333 -0.66666667 23.66666667 -2 24 C-2.33 24.66 -2.66 25.32 -3 26 C-5.64860427 26.59355614 -8.29197322 26.74209269 -11 27 C-10.814375 28.11375 -10.62875 29.2275 -10.4375 30.375 C-10 34 -10 34 -11 36 C-12.98 36 -14.96 36 -17 36 C-17 34.68 -17 33.36 -17 32 C-19.64 32 -22.28 32 -25 32 C-25 31.67 -25 31.34 -25 31 C-23.02 31 -21.04 31 -19 31 C-19 29.02 -19 27.04 -19 25 C-16.69 25 -14.38 25 -12 25 C-12 23.02 -12 21.04 -12 19 C-10.02 19 -8.04 19 -6 19 C-6 16.69 -6 14.38 -6 12 C-4.02 12 -2.04 12 0 12 C0 8.04 0 4.08 0 0 Z" transform="translate(87 54)"/><path fill="#1B8A89" d="M0 0 C0.66 0 1.32 0 2 0 C2 0.99 2 1.98 2 3 C2.66 3 3.32 3 4 3 C4.66 4.98 5.32 6.96 6 9 C6.66 9 7.32 9 8 9 C8.33 7.02 8.66 5.04 9 3 C12.55648196 2.09020229 14.43333744 1.76594372 17.875 3.1875 C18.57625 3.785625 19.2775 4.38375 20 5 C20 6.32 20 7.64 20 9 C20.99 8.67 21.98 8.34 23 8 C23 8.66 23 9.32 23 10 C22.34 10 21.68 10 21 10 C21 10.66 21 11.32 21 12 C20.34 12 19.68 12 19 12 C19.04125 13.11375 19.0825 14.2275 19.125 15.375 C19 19 19 19 17 21 C14.375 21.125 14.375 21.125 12 21 C12 19.68 12 18.36 12 17 C11.071875 16.71125 10.14375 16.4225 9.1875 16.125 C6 15 6 15 3 13 C3 12.34 3 11.68 3 11 C2.01 11 1.02 11 0 11 C0 7.37 0 3.74 0 0 Z" transform="translate(0 60)"/><path fill="#8E8D65" d="M0 0 C8.91 0 17.82 0 27 0 C27 1.32 27 2.64 27 4 C24.69 4 22.38 4 20 4 C20 5.32 20 6.64 20 8 C11.42 8 2.84 8 -6 8 C-6 6.02 -6 4.04 -6 2 C-4.02 2 -2.04 2 0 2 C0 1.34 0 0.68 0 0 Z" transform="translate(68 96)"/><path fill="#59BEF7" d="M0 0 C1.99609375 0.3046875 1.99609375 0.3046875 4.4375 0.875 C5.24058594 1.05804688 6.04367188 1.24109375 6.87109375 1.4296875 C9 2 9 2 11 3 C13.09821215 2.60061233 13.09821215 2.60061233 15 2 C15.33 2.99 15.66 3.98 16 5 C18.01508358 5.73323796 18.01508358 5.73323796 20 6 C20.66 5.01 21.32 4.02 22 3 C22.99 3 23.98 3 25 3 C25.48929664 10.21712538 25.48929664 10.21712538 23.125 14 C21 16 21 16 19 16 C19 14.68 19 13.36 19 12 C15.17010894 10.19769832 12.21878192 9.80377759 8 10 C7.67 11.98 7.34 13.96 7 16 C6.34 16 5.68 16 5 16 C3 13 3 13 3 10 C2.34 10 1.68 10 1 10 C1 9.01 1 8.02 1 7 C0.34 7 -0.32 7 -1 7 C-1.04254356 5.00045254 -1.04080783 2.99958364 -1 1 C-0.67 0.67 -0.34 0.34 0 0 Z" transform="translate(1 53)"/><path fill="#044B1B" d="M0 0 C1.9375 1.3125 1.9375 1.3125 3 3 C3 3.99 3 4.98 3 6 C4.65 6.33 6.3 6.66 8 7 C7.5020163 10.73487777 7.12508244 12.81237635 5 16 C1.12844802 17.01716946 -2.56692014 16.71132873 -6.1484375 14.93359375 C-8.91690103 12.86007106 -10.74471318 11.29500041 -11.4296875 7.8203125 C-11.4375 5.625 -11.4375 5.625 -11 2 C-7.35969312 -0.3297964 -4.24881273 -0.3862557 0 0 Z" transform="translate(43 30)"/><path fill="#480A85" d="M0 0 C1.32 0.33 2.64 0.66 4 1 C4 1.66 4 2.32 4 3 C4.66 2.67 5.32 2.34 6 2 C8.50236916 1.90711318 10.97662686 1.87417588 13.47900391 1.88647461 C14.6352401 1.88625557 14.6352401 1.88625557 15.81483459 1.8860321 C18.36877229 1.88673011 20.92263751 1.89451725 23.4765625 1.90234375 C25.24490316 1.90420833 27.01324433 1.90563204 28.78158569 1.90663147 C33.44064759 1.9104535 38.09967842 1.92028112 42.75872803 1.93133545 C47.51102274 1.94155631 52.26332247 1.94613054 57.015625 1.95117188 C66.34376367 1.96190366 75.67187925 1.97897633 85 2 C85 2.99 85 3.98 85 5 C74.28177283 5.02318642 63.56355165 5.04094723 52.84530449 5.05181217 C47.8682148 5.0570272 42.8911423 5.06409981 37.9140625 5.07543945 C33.10949663 5.08631734 28.30494726 5.09228724 23.50037003 5.09487724 C21.66879135 5.09672265 19.83721357 5.10032625 18.00564194 5.10573006 C15.43717253 5.11300551 12.86877105 5.11398819 10.30029297 5.11352539 C9.16848351 5.1189183 9.16848351 5.1189183 8.0138092 5.12442017 C3.90287703 5.11642276 0.03298047 4.80116455 -4 4 C-2.68 3.34 -1.36 2.68 0 2 C0 1.34 0 0.68 0 0 Z" transform="translate(43 102)"/><path fill="#928F6E" d="M0 0 C7.26 0 14.52 0 22 0 C22.33 2.64 22.66 5.28 23 8 C13.76 8 4.52 8 -5 8 C-5 6.68 -5 5.36 -5 4 C-4.01 4 -3.02 4 -2 4 C-1.34 2.68 -0.68 1.36 0 0 Z" transform="translate(14 96)"/><path fill="#3C3527" d="M0 0 C2.64 0 5.28 0 8 0 C7.85904936 1.6254308 7.71207913 3.25034051 7.5625 4.875 C7.48128906 5.77992187 7.40007812 6.68484375 7.31640625 7.6171875 C7 10 7 10 6 12 C4.02 12 2.04 12 0 12 C0 13.98 0 15.96 0 18 C-4.29 18 -8.58 18 -13 18 C-13 16.02 -13 14.04 -13 12 C-10.69 12 -8.38 12 -6 12 C-6 10.02 -6 8.04 -6 6 C-4.02 6 -2.04 6 0 6 C0 4.02 0 2.04 0 0 Z" transform="translate(62 86)"/><path fill="#B8B195" d="M0 0 C1.81242052 -0.02687279 3.62495233 -0.04633715 5.4375 -0.0625 C6.44683594 -0.07410156 7.45617188 -0.08570312 8.49609375 -0.09765625 C11 0 11 0 12 1 C12.04080783 2.99958364 12.04254356 5.00045254 12 7 C14.31 7 16.62 7 19 7 C19 8.98 19 10.96 19 13 C16.69 13 14.38 13 12 13 C12 14.98 12 16.96 12 19 C10.02 19 8.04 19 6 19 C5.67 15.04 5.34 11.08 5 7 C3.35 7 1.7 7 0 7 C0 4.69 0 2.38 0 0 Z" transform="translate(56 66)"/><path fill="#50A8CF" d="M0 0 C2.97 0 5.94 0 9 0 C9.33 1.65 9.66 3.3 10 5 C10.99 5.33 11.98 5.66 13 6 C14 7 14 7 14.0625 10.0625 C14.041875 11.031875 14.02125 12.00125 14 13 C12.02 13 10.04 13 8 13 C8 11.02 8 9.04 8 7 C5.69 7 3.38 7 1 7 C1 10.96 1 14.92 1 19 C-0.98 19 -2.96 19 -5 19 C-5 14.71 -5 10.42 -5 6 C-3.35 5.67 -1.7 5.34 0 5 C0 3.35 0 1.7 0 0 Z" transform="translate(67 15)"/><path fill="#6AC2FA" d="M0 0 C0 0.99 0 1.98 0 3 C-1.65 3.33 -3.3 3.66 -5 4 C-5.33 5.32 -5.66 6.64 -6 8 C-6.66 8 -7.32 8 -8 8 C-8 9.98 -8 11.96 -8 14 C-9.99954746 14.04254356 -12.00041636 14.04080783 -14 14 C-15 13 -15 13 -15.0625 9.9375 C-15.0315625 8.4834375 -15.0315625 8.4834375 -15 7 C-15.66 7 -16.32 7 -17 7 C-17 6.34 -17 5.68 -17 5 C-17.7425 5.103125 -18.485 5.20625 -19.25 5.3125 C-22 5 -22 5 -24.171875 2.48046875 C-24.77515625 1.66191406 -25.3784375 0.84335938 -26 0 C-23.1670419 -0.1967332 -20.33403677 -0.38259641 -17.5 -0.5625 C-16.70851563 -0.61857422 -15.91703125 -0.67464844 -15.1015625 -0.73242188 C-9.90480221 -1.05189484 -5.14718438 -0.79686914 0 0 Z" transform="translate(128 64)"/><path fill="#024F11" d="M0 0 C0.99 0 1.98 0 3 0 C4.33333333 1.33333333 5.66666667 2.66666667 7 4 C9.63222962 5.25436187 9.63222962 5.25436187 12 6 C12 7.65 12 9.3 12 11 C12.66 11.33 13.32 11.66 14 12 C9.25 16.875 9.25 16.875 7 18 C7 17.34 7 16.68 7 16 C6.01 16 5.02 16 4 16 C4 16.66 4 17.32 4 18 C2.68 18 1.36 18 0 18 C0 12.06 0 6.12 0 0 Z" transform="translate(0 71)"/><path fill="#91C0F0" d="M0 0 C0 2.97 0 5.94 0 9 C-2.26955186 9.22185844 -4.54073755 9.42705515 -6.8125 9.625 C-8.07707031 9.74101563 -9.34164062 9.85703125 -10.64453125 9.9765625 C-14 10 -14 10 -17 8 C-17.99 8.495 -17.99 8.495 -19 9 C-19.66 8.67 -20.32 8.34 -21 8 C-21 6.02 -21 4.04 -21 2 C-13.94546999 0.79556805 -7.16562789 -0.28100502 0 0 Z" transform="translate(128 47)"/><path fill="#2F3726" d="M0 0 C1.98 0 3.96 0 6 0 C6 1.98 6 3.96 6 6 C4.02 6 2.04 6 0 6 C0 7.98 0 9.96 0 12 C-2.31 12 -4.62 12 -7 12 C-7 13.98 -7 15.96 -7 18 C-8.98 18 -10.96 18 -13 18 C-13 17.34 -13 16.68 -13 16 C-13.99 16.33 -14.98 16.66 -16 17 C-19.1875 15.0625 -19.1875 15.0625 -22 13 C-20.35 11.68 -18.7 10.36 -17 9 C-17 9.66 -17 10.32 -17 11 C-15.88625 10.7215625 -15.88625 10.7215625 -14.75 10.4375 C-12.05009037 10.00796892 -10.55368923 10.14877026 -8 11 C-7.34 9.02 -6.68 7.04 -6 5 C-4.35 5 -2.7 5 -1 5 C-0.67 3.35 -0.34 1.7 0 0 Z" transform="translate(56 35)"/><path fill="#024A16" d="M0 0 C1.65 0 3.3 0 5 0 C5.02684679 2.64590014 5.04676357 5.29153096 5.0625 7.9375 C5.07087891 8.69224609 5.07925781 9.44699219 5.08789062 10.22460938 C5.09652441 12.14994313 5.05224333 14.07535581 5 16 C4.67 16.33 4.34 16.66 4 17 C1.33333333 17 -1.33333333 17 -4 17 C-4.33 17.33 -4.66 17.66 -5 18 C-5.99 18.33 -6.98 18.66 -8 19 C-10.09230769 14.56923077 -10.09230769 14.56923077 -9.625 11.6875 C-9.41875 11.130625 -9.2125 10.57375 -9 10 C-6.03 10.495 -6.03 10.495 -3 11 C-3 9.02 -3 7.04 -3 5 C-2.34 4.67 -1.68 4.34 -1 4 C-0.34786708 1.97536745 -0.34786708 1.97536745 0 0 Z" transform="translate(123 67)"/><path fill="#464524" d="M0 0 C2.31 0 4.62 0 7 0 C7 1.65 7 3.3 7 5 C7.99 5.33 8.98 5.66 10 6 C10 6.66 10 7.32 10 8 C10.99 7.67 11.98 7.34 13 7 C13 7.66 13 8.32 13 9 C14.32 9 15.64 9 17 9 C17 8.01 17 7.02 17 6 C18.32 6 19.64 6 21 6 C21.38218767 7.65614657 21.71395102 9.32457024 22 11 C21 12 21 12 18.95874023 12.11352539 C18.08419189 12.10828857 17.20964355 12.10305176 16.30859375 12.09765625 C15.36435547 12.09443359 14.42011719 12.09121094 13.44726562 12.08789062 C12.45404297 12.07951172 11.46082031 12.07113281 10.4375 12.0625 C9.44041016 12.05798828 8.44332031 12.05347656 7.41601562 12.04882812 C4.94398513 12.03700023 2.47198528 12.01906415 0 12 C0 8.04 0 4.08 0 0 Z" transform="translate(106 84)"/><path fill="#BBB39A" d="M0 0 C1.98 0 3.96 0 6 0 C6 3.96 6 7.92 6 12 C4.02 12 2.04 12 0 12 C0 14.31 0 16.62 0 19 C-1.98 19 -3.96 19 -6 19 C-6 14.71 -6 10.42 -6 6 C-3.69 6 -1.38 6 1 6 C0.67 4.02 0.34 2.04 0 0 Z" transform="translate(81 54)"/><path fill="#A7A089" d="M0 0 C4.29 0 8.58 0 13 0 C13 2.31 13 4.62 13 7 C11.02 7 9.04 7 7 7 C7 8.98 7 10.96 7 13 C4.69 13 2.38 13 0 13 C0 8.71 0 4.42 0 0 Z" transform="translate(49 85)"/><path fill="#C4BBA2" d="M0 0 C2.31 0 4.62 0 7 0 C7 2.31 7 4.62 7 7 C8.65 7 10.3 7 12 7 C12 8.98 12 10.96 12 13 C8.37 13 4.74 13 1 13 C1 14.98 1 16.96 1 19 C0.67 19 0.34 19 0 19 C0 17.02 0 15.04 0 13 C-1.98 13 -3.96 13 -6 13 C-6 12.67 -6 12.34 -6 12 C-4.02 12 -2.04 12 0 12 C0 8.04 0 4.08 0 0 Z" transform="translate(68 22)"/><path fill="#51B6EF" d="M0 0 C0.33 0 0.66 0 1 0 C1 1.65 1 3.3 1 5 C2.98 5 4.96 5 7 5 C7.33 6.65 7.66 8.3 8 10 C9.65 9.67 11.3 9.34 13 9 C14.41377341 11.63904371 15.37240135 14.07120629 16 17 C16.66 17 17.32 17 18 17 C18.33 16.34 18.66 15.68 19 15 C20.98 15.66 22.96 16.32 25 17 C25 17.66 25 18.32 25 19 C25.66 19.33 26.32 19.66 27 20 C26.195625 20.12375 25.39125 20.2475 24.5625 20.375 C23.716875 20.58125 22.87125 20.7875 22 21 C21.67 21.66 21.34 22.32 21 23 C21.9075 22.9175 22.815 22.835 23.75 22.75 C27 23 27 23 29.375 25 C29.91125 25.66 30.4475 26.32 31 27 C29.35 27 27.7 27 26 27 C26 30.63 26 34.26 26 38 C25.67 38 25.34 38 25 38 C25 33.71 25 29.42 25 25 C23.02 25 21.04 25 19 25 C19 23.02 19 21.04 19 19 C17.02 19 15.04 19 13 19 C13 16.69 13 14.38 13 12 C11.02 12 9.04 12 7 12 C6.67 10.35 6.34 8.7 6 7 C3.03 6.505 3.03 6.505 0 6 C0 4.02 0 2.04 0 0 Z" transform="translate(81 22)"/><path fill="#5E8585" d="M0 0 C0.66 0 1.32 0 2 0 C2 0.99 2 1.98 2 3 C2.66 3 3.32 3 4 3 C4.66 4.98 5.32 6.96 6 9 C6.66 9 7.32 9 8 9 C8 9.66 8 10.32 8 11 C9.65 10.67 11.3 10.34 13 10 C13.99 12.31 14.98 14.62 16 17 C16.66 17 17.32 17 18 17 C17.67 18.32 17.34 19.64 17 21 C15.35 21 13.7 21 12 21 C12 19.68 12 18.36 12 17 C11.071875 16.71125 10.14375 16.4225 9.1875 16.125 C6 15 6 15 3 13 C3 12.34 3 11.68 3 11 C2.01 11 1.02 11 0 11 C0 7.37 0 3.74 0 0 Z" transform="translate(0 60)"/><path fill="#92B8DC" d="M0 0 C2.64 0 5.28 0 8 0 C8 3.3 8 6.6 8 10 C0.08 10.495 0.08 10.495 -8 11 C-8 11.66 -8 12.32 -8 13 C-9.65 12.67 -11.3 12.34 -13 12 C-13.33 11.01 -13.66 10.02 -14 9 C-8.61972975 7.80911014 -3.54708616 6.7080481 2 7 C1.67 6.401875 1.34 5.80375 1 5.1875 C0 3 0 3 0 0 Z" transform="translate(120 25)"/><path fill="#113308" d="M0 0 C1.32 0 2.64 0 4 0 C3.34 1.98 2.68 3.96 2 6 C10.25 6 18.5 6 27 6 C27 6.33 27 6.66 27 7 C25.02 7 23.04 7 21 7 C21.33 9.97 21.66 12.94 22 16 C19.36 16 16.72 16 14 16 C14 14.35 14 12.7 14 11 C14.99 11 15.98 11 17 11 C17.33 9.68 17.66 8.36 18 7 C15.69 7 13.38 7 11 7 C11.33 8.65 11.66 10.3 12 12 C10.35 12.33 8.7 12.66 7 13 C7 11.02 7 9.04 7 7 C4.69 7 2.38 7 0 7 C-0.38133299 5.0085944 -0.71325582 3.00720923 -1 1 C-0.67 0.67 -0.34 0.34 0 0 Z" transform="translate(85 77)"/><path fill="#4C411F" d="M0 0 C0 0.99 0 1.98 0 3 C1.65 3 3.3 3 5 3 C5 4.32 5 5.64 5 7 C-1.27 7 -7.54 7 -14 7 C-14 5.02 -14 3.04 -14 1 C-4.58997722 -0.14806378 -4.58997722 -0.14806378 0 0 Z" transform="translate(14 89)"/><path fill="#D7D0B4" d="M0 0 C1.98 0 3.96 0 6 0 C6 1.98 6 3.96 6 6 C7.98 6 9.96 6 12 6 C12 7.98 12 9.96 12 12 C8.04 12 4.08 12 0 12 C0 8.04 0 4.08 0 0 Z" transform="translate(81 35)"/><path fill="#444221" d="M0 0 C2.31 0 4.62 0 7 0 C7 1.98 7 3.96 7 6 C6.67 5.34 6.34 4.68 6 4 C5.01 4 4.02 4 3 4 C3.28151087 5.31471568 3.57553339 6.62675767 3.875 7.9375 C4.11863281 9.03384766 4.11863281 9.03384766 4.3671875 10.15234375 C4.82961523 12.20700294 4.82961523 12.20700294 7 13 C6.34 14.98 5.68 16.96 5 19 C3.68 18.34 2.36 17.68 1 17 C1.66 17 2.32 17 3 17 C2.34 14.36 1.68 11.72 1 9 C0.071875 9.309375 -0.85625 9.61875 -1.8125 9.9375 C-3.875 10.625 -5.9375 11.3125 -8 12 C-8 10.02 -8 8.04 -8 6 C-3.545 5.505 -3.545 5.505 1 5 C0.67 3.35 0.34 1.7 0 0 Z" transform="translate(96 84)"/><path fill="#4F4A2A" d="M0 0 C0 1.32 0 2.64 0 4 C2.31 4 4.62 4 7 4 C7 5.98 7 7.96 7 10 C4.125 10.125 4.125 10.125 1 10 C0.34 9.34 -0.32 8.68 -1 8 C-4.58343976 7.83322718 -4.58343976 7.83322718 -8 8 C-8.33 5.69 -8.66 3.38 -9 1 C-6.04335481 -0.4783226 -3.25770263 -0.06032783 0 0 Z" transform="translate(85 80)"/><path fill="#ADA58F" d="M0 0 C0.33 0 0.66 0 1 0 C1 4.29 1 8.58 1 13 C-3.29 13 -7.58 13 -12 13 C-12 10.69 -12 8.38 -12 6 C-8.04 6 -4.08 6 0 6 C0 4.02 0 2.04 0 0 Z" transform="translate(93 41)"/><path fill="#30413D" d="M0 0 C1.99954746 -0.04254356 4.00041636 -0.04080783 6 0 C7 1 7 1 7.0625 3.5625 C7.041875 4.366875 7.02125 5.17125 7 6 C8.98 6 10.96 6 13 6 C13 8.31 13 10.62 13 13 C10.69 13 8.38 13 6 13 C6 11.02 6 9.04 6 7 C4.02 7 2.04 7 0 7 C0 4.69 0 2.38 0 0 Z" transform="translate(81 28)"/><path fill="#7E7D5A" d="M0 0 C4.62 0 9.24 0 14 0 C13.67 2.31 13.34 4.62 13 7 C12.67 6.01 12.34 5.02 12 4 C11.01 4 10.02 4 9 4 C9 5.32 9 6.64 9 8 C6.03 8 3.06 8 0 8 C0 5.36 0 2.72 0 0 Z" transform="translate(0 96)"/><path fill="#C7BFA0" d="M0 0 C1.81242052 -0.02687279 3.62495233 -0.04633715 5.4375 -0.0625 C6.44683594 -0.07410156 7.45617188 -0.08570312 8.49609375 -0.09765625 C11 0 11 0 12 1 C12.04080783 2.99958364 12.04254356 5.00045254 12 7 C10.35 7.33 8.7 7.66 7 8 C7 11.3 7 14.6 7 18 C6.67 18 6.34 18 6 18 C5.67 14.37 5.34 10.74 5 7 C3.35 7 1.7 7 0 7 C0 4.69 0 2.38 0 0 Z" transform="translate(56 66)"/><path fill="#4DBAFE" d="M0 0 C0 2.31 0 4.62 0 7 C-5.28 7 -10.56 7 -16 7 C-16 5.02 -16 3.04 -16 1 C-13.89594609 0.83191581 -11.79175242 0.66558052 -9.6875 0.5 C-8.51574219 0.4071875 -7.34398438 0.314375 -6.13671875 0.21875 C-4.094806 0.07635011 -2.0468721 0 0 0 Z" transform="translate(128 38)"/><path fill="#787652" d="M0 0 C0.80566406 0.00322266 1.61132812 0.00644531 2.44140625 0.00976562 C3.70404297 0.02233398 3.70404297 0.02233398 4.9921875 0.03515625 C5.84167969 0.03966797 6.69117187 0.04417969 7.56640625 0.04882812 C9.66669659 0.06062751 11.7669508 0.07856319 13.8671875 0.09765625 C13.8671875 1.74765625 13.8671875 3.39765625 13.8671875 5.09765625 C8.2571875 5.09765625 2.6471875 5.09765625 -3.1328125 5.09765625 C-3.1328125 6.08765625 -3.1328125 7.07765625 -3.1328125 8.09765625 C-4.1228125 8.09765625 -5.1128125 8.09765625 -6.1328125 8.09765625 C-6.1328125 5.78765625 -6.1328125 3.47765625 -6.1328125 1.09765625 C-3.8362755 -0.05061225 -2.54968083 -0.0179555 0 0 Z" transform="translate(114.133 94.902)"/><path fill="#918976" d="M0 0 C0.33 0 0.66 0 1 0 C1 6.27 1 12.54 1 19 C-1.31 19 -3.62 19 -6 19 C-6 14.71 -6 10.42 -6 6 C-4.02 6 -2.04 6 0 6 C0 4.02 0 2.04 0 0 Z" transform="translate(36 60)"/><path fill="#524933" d="M0 0 C2.475 0.99 2.475 0.99 5 2 C5 2.66 5 3.32 5 4 C5.66 4.33 6.32 4.66 7 5 C6.34 6.65 5.68 8.3 5 10 C3.35 10 1.7 10 0 10 C0 11.98 0 13.96 0 16 C-1.98 16 -3.96 16 -6 16 C-5.57405412 14.55903414 -5.13373367 13.12231288 -4.6875 11.6875 C-4.32205078 10.48673828 -4.32205078 10.48673828 -3.94921875 9.26171875 C-3 7 -3 7 -1.39453125 5.45703125 C0.46096166 3.85451957 0.46096166 3.85451957 0 0 Z" transform="translate(30 50)"/><path fill="#105D50" d="M0 0 C1.9375 1.3125 1.9375 1.3125 3 3 C3 3.99 3 4.98 3 6 C4.65 6.33 6.3 6.66 8 7 C7.67 7.99 7.34 8.98 7 10 C7 9.34 7 8.68 7 8 C6.34 8 5.68 8 5 8 C4.67 8.66 4.34 9.32 4 10 C4 9.01 4 8.02 4 7 C2.68 6.67 1.36 6.34 0 6 C0 4.68 0 3.36 0 2 C-1.98 2 -3.96 2 -6 2 C-7.10844919 5.32534757 -6.84454356 7.62182575 -6 11 C-4.02 11.66 -2.04 12.32 0 13 C-0.99 14.485 -0.99 14.485 -2 16 C-4.96714383 15.67031735 -6.31954439 14.76034171 -8.75 12.9375 C-11.79627851 8.96041417 -11.41514677 6.89873187 -11 2 C-7.35969312 -0.3297964 -4.24881273 -0.3862557 0 0 Z" transform="translate(43 30)"/><path fill="#6BB8EF" d="M0 0 C0.66 0 1.32 0 2 0 C3 1 4 2 5 3 C5.99 3.33 6.98 3.66 8 4 C8 3.34 8 2.68 8 2 C15.92 1.505 15.92 1.505 24 1 C23.67 2.32 23.34 3.64 23 5 C21.41058594 5.05607422 21.41058594 5.05607422 19.7890625 5.11328125 C18.40100576 5.17893258 17.01298651 5.24538021 15.625 5.3125 C14.92632812 5.33505859 14.22765625 5.35761719 13.5078125 5.38085938 C11.22711059 5.46984296 11.22711059 5.46984296 8 6 C7.01 7.485 7.01 7.485 6 9 C5.566875 8.54625 5.13375 8.0925 4.6875 7.625 C2.89201658 5.79975666 2.89201658 5.79975666 0 4 C0 2.68 0 1.36 0 0 Z" transform="translate(104 34)"/><path fill="#9ACDFC" d="M0 0 C0 1.32 0 2.64 0 4 C-10.395 4.99 -10.395 4.99 -21 6 C-21 4.68 -21 3.36 -21 2 C-13.94546999 0.79556805 -7.16562789 -0.28100502 0 0 Z" transform="translate(128 47)"/><path fill="#89C5FB" d="M0 0 C4.93928888 -0.3367697 5.78492722 -0.16130459 10 3 C9.34 6.3 8.68 9.6 8 13 C7.34 13 6.68 13 6 13 C4 10 4 10 4 7 C3.34 7 2.68 7 2 7 C2 6.01 2 5.02 2 4 C1.34 4 0.68 4 0 4 C0 2.68 0 1.36 0 0 Z" transform="translate(0 56)"/><path fill="#40AED9" d="M0 0 C1.65 0 3.3 0 5 0 C5 0.66 5 1.32 5 2 C5.763125 1.896875 6.52625 1.79375 7.3125 1.6875 C8.199375 1.790625 9.08625 1.89375 10 2 C11.81883009 4.3832946 13 5.95818337 13 9 C14.32 9.33 15.64 9.66 17 10 C17 10.99 17 11.98 17 13 C17.66 13 18.32 13 19 13 C19.33 11.35 19.66 9.7 20 8 C22.31 8 24.62 8 27 8 C27 8.33 27 8.66 27 9 C25.02 9 23.04 9 21 9 C21 10.65 21 12.3 21 14 C20.01 14.33 19.02 14.66 18 15 C17.34 14.67 16.68 14.34 16 14 C16 13.01 16 12.02 16 11 C15.236875 10.938125 14.47375 10.87625 13.6875 10.8125 C12.800625 10.544375 11.91375 10.27625 11 10 C10.5875 9.154375 10.175 8.30875 9.75 7.4375 C9.1725 6.633125 8.595 5.82875 8 5 C4.96268266 4.54358738 2.0495335 4.71230816 -1 5 C-0.67 3.35 -0.34 1.7 0 0 Z" transform="translate(35 26)"/><path fill="#561C86" d="M0 0 C1.32 0.33 2.64 0.66 4 1 C4 1.66 4 2.32 4 3 C4.66 2.67 5.32 2.34 6 2 C8.03232634 1.91472372 10.06747006 1.89283865 12.1015625 1.90234375 C13.31328125 1.90556641 14.525 1.90878906 15.7734375 1.91210938 C17.04445313 1.92048828 18.31546875 1.92886719 19.625 1.9375 C20.90375 1.94201172 22.1825 1.94652344 23.5 1.95117188 C26.66671292 1.96298797 29.83333356 1.97946185 33 2 C33 2.33 33 2.66 33 3 C29.52147832 3.34029508 26.04210091 3.6709387 22.5625 4 C21.58861328 4.09539062 20.61472656 4.19078125 19.61132812 4.2890625 C11.63953188 5.03558523 3.89589158 5.61967007 -4 4 C-2.68 3.34 -1.36 2.68 0 2 C0 1.34 0 0.68 0 0 Z" transform="translate(43 102)"/><path fill="#46B5E4" d="M0 0 C0.99 0.33 1.98 0.66 3 1 C2.67 3.64 2.34 6.28 2 9 C3.32 9.66 4.64 10.32 6 11 C6 11.99 6 12.98 6 14 C4.35 13.67 2.7 13.34 1 13 C1 13.66 1 14.32 1 15 C0.01 15.495 0.01 15.495 -1 16 C-0.979375 17.11375 -0.95875 18.2275 -0.9375 19.375 C-1 23 -1 23 -2 25 C-2.66 25 -3.32 25 -4 25 C-3.67 21.37 -3.34 17.74 -3 14 C-2.34 14 -1.68 14 -1 14 C-1.185625 13.34 -1.37125 12.68 -1.5625 12 C-2.13479705 8.0756774 -1.65229996 4.91379978 -1 1 C-0.67 0.67 -0.34 0.34 0 0 Z" transform="translate(30 31)"/><path fill="#514121" d="M0 0 C0.33 0.99 0.66 1.98 1 3 C0 4 0 4 -3.59765625 4.09765625 C-5.08596867 4.0909822 -6.57426432 4.07902183 -8.0625 4.0625 C-8.82111328 4.05798828 -9.57972656 4.05347656 -10.36132812 4.04882812 C-12.24091871 4.0370068 -14.12046899 4.01907078 -16 4 C-16 3.34 -16 2.68 -16 2 C-16.66 2 -17.32 2 -18 2 C-18 1.34 -18 0.68 -18 0 C-11.76817361 -1.03863773 -6.25307239 -0.83288874 0 0 Z" transform="translate(42 92)"/><path fill="#4F583F" d="M0 0 C0.886875 0.804375 1.77375 1.60875 2.6875 2.4375 C5.38287032 4.7039159 7.42063478 5.68417366 11 6 C11 6.66 11 7.32 11 8 C4.73 8 -1.54 8 -8 8 C-7.67 6.68 -7.34 5.36 -7 4 C-4.69 4 -2.38 4 0 4 C0 2.68 0 1.36 0 0 Z" transform="translate(100 63)"/><path fill="#3B3326" d="M0 0 C1.98 0 3.96 0 6 0 C6 3.96 6 7.92 6 12 C4.02 12 2.04 12 0 12 C0 8.04 0 4.08 0 0 Z" transform="translate(62 22)"/><path fill="#AAD0F5" d="M0 0 C1.5 1.375 1.5 1.375 3 3 C3 3.66 3 4.32 3 5 C-2.76081841 6.2982126 -8.08739655 7.25706972 -14 7 C-14 5.35 -14 3.7 -14 2 C-12.4840625 2.061875 -12.4840625 2.061875 -10.9375 2.125 C-6.81923948 1.99426157 -3.88169467 1.26749214 0 0 Z" transform="translate(119 27)"/><path fill="#165027" d="M0 0 C6.15234375 0.5859375 6.15234375 0.5859375 8 1 C8.33 1.66 8.66 2.32 9 3 C10.98 3 12.96 3 15 3 C14.67 4.32 14.34 5.64 14 7 C12.700625 6.979375 11.40125 6.95875 10.0625 6.9375 C8.70834367 6.91600546 7.35243917 6.92851801 6 7 C5.67 7.33 5.34 7.66 5 8 C4.01 8.33 3.02 8.66 2 9 C0.50178941 5.62902617 0 3.79557881 0 0 Z" transform="translate(113 77)"/><path fill="#928F6E" d="M0 0 C2.64 0 5.28 0 8 0 C8.33 2.64 8.66 5.28 9 8 C6.36 8 3.72 8 1 8 C0.67 5.36 0.34 2.72 0 0 Z" transform="translate(28 96)"/><path fill="#DBD3B7" d="M0 0 C1.98 0 3.96 0 6 0 C6 3.96 6 7.92 6 12 C4.35 12 2.7 12 1 12 C1 9.69 1 7.38 1 5 C0.34 4.67 -0.32 4.34 -1 4 C-0.67 2.68 -0.34 1.36 0 0 Z" transform="translate(68 60)"/><path fill="#595130" d="M0 0 C2.31 0 4.62 0 7 0 C7 0.99 7 1.98 7 3 C7.66 3 8.32 3 9 3 C9 5.31 9 7.62 9 10 C6.69 10 4.38 10 2 10 C2.50603992 7.83125748 2.99983813 6.00032373 4 4 C3.01 3.67 2.02 3.34 1 3 C0.67 2.01 0.34 1.02 0 0 Z" transform="translate(99 93)"/><path fill="#383625" d="M0 0 C4.95 0 9.9 0 15 0 C15 1.98 15 3.96 15 6 C13.02 6 11.04 6 9 6 C9 5.34 9 4.68 9 4 C8.01 4.33 7.02 4.66 6 5 C2.8125 3.125 2.8125 3.125 0 1 C0 0.67 0 0.34 0 0 Z" transform="translate(34 47)"/><path fill="#317D7D" d="M0 0 C0.639375 0.495 1.27875 0.99 1.9375 1.5 C3.85808037 3.25481025 3.85808037 3.25481025 6.0625 2.75 C6.701875 2.5025 7.34125 2.255 8 2 C8.99 1.67 9.98 1.34 11 1 C11 1.66 11 2.32 11 3 C10.34 3 9.68 3 9 3 C9 3.66 9 4.32 9 5 C8.34 5 7.68 5 7 5 C7 7.31 7 9.62 7 12 C6.67 11.34 6.34 10.68 6 10 C5.34 10 4.68 10 4 10 C3.67 10.99 3.34 11.98 3 13 C2.34 10.03 1.68 7.06 1 4 C-0.65 4 -2.3 4 -4 4 C-3.67 3.01 -3.34 2.02 -3 1 C-2.01 0.67 -1.02 0.34 0 0 Z" transform="translate(12 67)"/><path fill="#9C9781" d="M0 0 C2.31 0.33 4.62 0.66 7 1 C7 2.32 7 3.64 7 5 C8.32 5 9.64 5 11 5 C11.33 4.01 11.66 3.02 12 2 C12 2.99 12 3.98 12 5 C13.32 5 14.64 5 16 5 C16.33 4.01 16.66 3.02 17 2 C17 2.99 17 3.98 17 5 C18.65 4.67 20.3 4.34 22 4 C22 4.66 22 5.32 22 6 C14.74 6 7.48 6 0 6 C0 4.02 0 2.04 0 0 Z" transform="translate(62 98)"/><path fill="#354C2F" d="M0 0 C0 2 0 2 -2.5 4.625 C-3.325 5.40875 -4.15 6.1925 -5 7 C-4.01 8.485 -4.01 8.485 -3 10 C-8.72040011 10.8320582 -14.22240116 11.12036664 -20 11 C-18.68 10.67 -17.36 10.34 -16 10 C-16 9.34 -16 8.68 -16 8 C-15.4225 8.20625 -14.845 8.4125 -14.25 8.625 C-11.48032433 9.08661261 -10.35438733 8.42944945 -8 7 C-8 5.68 -8 4.36 -8 3 C-8 2.67 -8 2.34 -8 2 C-2.25 0 -2.25 0 0 0 Z" transform="translate(20 79)"/><path fill="#4D3E1D" d="M0 0 C0.33 0.66 0.66 1.32 1 2 C4.3 2 7.6 2 11 2 C11.33 3.32 11.66 4.64 12 6 C10.68 5.67 9.36 5.34 8 5 C7.67 5.99 7.34 6.98 7 8 C4.69 8 2.38 8 0 8 C0 5.36 0 2.72 0 0 Z" transform="translate(69 88)"/><path fill="#66ACD7" d="M0 0 C0.66 0.66 1.32 1.32 2 2 C4.57061311 2.64767793 4.57061311 2.64767793 7 3 C7.33 4.65 7.66 6.3 8 8 C8.9075 7.9175 9.815 7.835 10.75 7.75 C14 8 14 8 16.375 10 C16.91125 10.66 17.4475 11.32 18 12 C16.35 12 14.7 12 13 12 C13 15.63 13 19.26 13 23 C12.67 23 12.34 23 12 23 C12 18.71 12 14.42 12 10 C10.02 10 8.04 10 6 10 C6 8.02 6 6.04 6 4 C4.02 4 2.04 4 0 4 C0 2.68 0 1.36 0 0 Z" transform="translate(94 37)"/><path fill="#0F5027" d="M0 0 C2.97 0 5.94 0 9 0 C9 1.98 9 3.96 9 6 C6.8125 6.8125 6.8125 6.8125 4 7 C1.1875 4.5625 1.1875 4.5625 -1 2 C-0.67 1.34 -0.34 0.68 0 0 Z" transform="translate(104 71)"/><path fill="#404325" d="M0 0 C5.61 0 11.22 0 17 0 C17 0.99 17 1.98 17 3 C11.39 3 5.78 3 0 3 C0 2.01 0 1.02 0 0 Z" transform="translate(111 100)"/><path fill="#5209AC" d="M0 0 C3.96 0 7.92 0 12 0 C12 1.32 12 2.64 12 4 C8.04 4 4.08 4 0 4 C0 2.68 0 1.36 0 0 Z" transform="translate(0 106)"/><path fill="#232005" d="M0 0 C0.66 0.33 1.32 0.66 2 1 C2.59355614 3.64860427 2.74209269 6.29197322 3 9 C0.36 9 -2.28 9 -5 9 C-5 7.35 -5 5.7 -5 4 C-4.01 4 -3.02 4 -2 4 C-1.34 2.68 -0.68 1.36 0 0 Z" transform="translate(104 84)"/><path fill="#105C36" d="M0 0 C0.99 0 1.98 0 3 0 C4.33333333 1.33333333 5.66666667 2.66666667 7 4 C9.63222962 5.25436187 9.63222962 5.25436187 12 6 C11.67 7.32 11.34 8.64 11 10 C9.9275 9.360625 8.855 8.72125 7.75 8.0625 C5.19177818 6.59398727 2.94659114 5.47145458 0 5 C0 3.35 0 1.7 0 0 Z" transform="translate(0 71)"/><path fill="#213A18" d="M0 0 C0.33 0.99 0.66 1.98 1 3 C1.66 3 2.32 3 3 3 C3 3.66 3 4.32 3 5 C7.455 4.505 7.455 4.505 12 4 C12 4.66 12 5.32 12 6 C9.5 7.625 9.5 7.625 7 9 C7 8.34 7 7.68 7 7 C6.01 7 5.02 7 4 7 C4 7.66 4 8.32 4 9 C2.68 9 1.36 9 0 9 C0 6.03 0 3.06 0 0 Z" transform="translate(0 80)"/><path fill="#3B3418" d="M0 0 C1.32 0 2.64 0 4 0 C6.36924875 2.45699871 7.40339753 4.65902615 8 8 C5.36 8 2.72 8 0 8 C0 5.36 0 2.72 0 0 Z" transform="translate(106 88)"/><path fill="#5108AE" d="M0 0 C-0.99 0.33 -1.98 0.66 -3 1 C-3 1.66 -3 2.32 -3 3 C-7.62 3.33 -12.24 3.66 -17 4 C-17 3.01 -17 2.02 -17 1 C-11.29014022 0.25983299 -5.75813575 -0.10469338 0 0 Z" transform="translate(62 106)"/><path fill="#38423A" d="M0 0 C1.98 0 3.96 0 6 0 C6 1.98 6 3.96 6 6 C4.02 6 2.04 6 0 6 C0 7.98 0 9.96 0 12 C-0.33 12 -0.66 12 -1 12 C-1.08159574 7.83861737 -0.98248524 4.0527516 0 0 Z" transform="translate(56 35)"/><path fill="#045324" d="M0 0 C2.9375 0.125 2.9375 0.125 6 1 C8.02021295 4.30580301 8.21811297 7.18302301 8 11 C7.01 10.67 6.02 10.34 5 10 C4.5 8 4.5 8 4 6 C3.01 5.67 2.02 5.34 1 5 C1 4.01 1 3.02 1 2 C0.34 1.67 -0.32 1.34 -1 1 C-0.67 0.67 -0.34 0.34 0 0 Z" transform="translate(37 31)"/><path fill="#413E1D" d="M0 0 C1 3 1 3 1 5 C-0.093125 5.309375 -1.18625 5.61875 -2.3125 5.9375 C-4.55407994 6.58337897 -6.7869351 7.2623117 -9 8 C-9 6.02 -9 4.04 -9 2 C-6.03 1.34 -3.06 0.68 0 0 Z" transform="translate(97 88)"/><path fill="#918A74" d="M0 0 C2.31 0 4.62 0 7 0 C7 1.98 7 3.96 7 6 C4.69 6 2.38 6 0 6 C0 4.02 0 2.04 0 0 Z" transform="translate(49 92)"/><path fill="#98927B" d="M0 0 C1.98 0 3.96 0 6 0 C6 2.31 6 4.62 6 7 C4.02 7 2.04 7 0 7 C0 4.69 0 2.38 0 0 Z" transform="translate(43 85)"/><path fill="#BFB69F" d="M0 0 C3.96 0 7.92 0 12 0 C12 1.98 12 3.96 12 6 C10.02 6 8.04 6 6 6 C6 4.35 6 2.7 6 1 C4.02 1 2.04 1 0 1 C0 0.67 0 0.34 0 0 Z" transform="translate(50 85)"/><path fill="#C9C1A2" d="M0 0 C2.31 0 4.62 0 7 0 C7 1.98 7 3.96 7 6 C4.69 6 2.38 6 0 6 C0 4.02 0 2.04 0 0 Z" transform="translate(49 60)"/><path fill="#4B4332" d="M0 0 C1.98 0 3.96 0 6 0 C6 2.31 6 4.62 6 7 C4.02 7 2.04 7 0 7 C0 4.69 0 2.38 0 0 Z" transform="translate(81 47)"/><path fill="#2B4750" d="M0 0 C2.31 0 4.62 0 7 0 C7 1.98 7 3.96 7 6 C4.69 6 2.38 6 0 6 C0 4.02 0 2.04 0 0 Z" transform="translate(68 16)"/><path fill="#4F06AE" d="M0 0 C2.95064148 -0.2208564 5.68368231 -0.28060989 8.625 -0.1875 C9.42679688 -0.17396484 10.22859375 -0.16042969 11.0546875 -0.14648438 C13.03674378 -0.11109051 15.01845551 -0.05728234 17 0 C16.01 0.495 16.01 0.495 15 1 C15 1.66 15 2.32 15 3 C13.68 3 12.36 3 11 3 C11 2.34 11 1.68 11 1 C10.01 1.495 10.01 1.495 9 2 C5.13938967 3.28687011 2.05849717 3.13757618 -2 3 C-1.34 2.01 -0.68 1.02 0 0 Z" transform="translate(65 106)"/><path fill="#716E4C" d="M0 0 C0 1.32 0 2.64 0 4 C-1.65 4 -3.3 4 -5 4 C-5 4.99 -5 5.98 -5 7 C-5.99 7 -6.98 7 -8 7 C-8 4.69 -8 2.38 -8 0 C-5.13822943 -1.43088528 -3.06624227 -0.59991697 0 0 Z" transform="translate(116 96)"/><path fill="#14340B" d="M0 0 C0.66 1.32 1.32 2.64 2 4 C6.62 4 11.24 4 16 4 C15.67 4.99 15.34 5.98 15 7 C15 6.34 15 5.68 15 5 C13.68 5 12.36 5 11 5 C11 5.99 11 6.98 11 8 C8.69 7.67 6.38 7.34 4 7 C4 6.34 4 5.68 4 5 C2.68 4.67 1.36 4.34 0 4 C0 2.68 0 1.36 0 0 Z" transform="translate(112 85)"/><path fill="#AFA891" d="M0 0 C1.4540625 0.0309375 1.4540625 0.0309375 2.9375 0.0625 C2.9375 2.0425 2.9375 4.0225 2.9375 6.0625 C0.9575 6.0625 -1.0225 6.0625 -3.0625 6.0625 C-3.44468767 4.40635343 -3.77645102 2.73792976 -4.0625 1.0625 C-3.0625 0.0625 -3.0625 0.0625 0 0 Z" transform="translate(40.063 72.938)"/><path fill="#5DB4DA" d="M0 0 C0.99 0 1.98 0 3 0 C3.48929664 7.21712538 3.48929664 7.21712538 1.125 11 C-1 13 -1 13 -3 13 C-2.41184099 9.97518225 -1.76995556 6.98357779 -1 4 C-0.814375 3.2575 -0.62875 2.515 -0.4375 1.75 C-0.2209375 0.88375 -0.2209375 0.88375 0 0 Z" transform="translate(23 56)"/><path fill="#9E9A7A" d="M0 0 C0.66 0 1.32 0 2 0 C2.33 2.64 2.66 5.28 3 8 C0.36 8 -2.28 8 -5 8 C-5 6.68 -5 5.36 -5 4 C-4.01 4 -3.02 4 -2 4 C-1.34 2.68 -0.68 1.36 0 0 Z" transform="translate(14 96)"/><path fill="#7E7D55" d="M0 0 C4.95 0 9.9 0 15 0 C15 1.32 15 2.64 15 4 C12.69 4 10.38 4 8 4 C8 3.34 8 2.68 8 2 C5.36 1.67 2.72 1.34 0 1 C0 0.67 0 0.34 0 0 Z" transform="translate(80 96)"/><path fill="#383518" d="M0 0 C1.32 0 2.64 0 4 0 C4.38218767 1.65614657 4.71395102 3.32457024 5 5 C4 6 4 6 1.4375 6.0625 C0.2309375 6.0315625 0.2309375 6.0315625 -1 6 C-1 5.34 -1 4.68 -1 4 C-3.97 3.505 -3.97 3.505 -7 3 C-6.01 2.34 -5.02 1.68 -4 1 C-4 1.66 -4 2.32 -4 3 C-2.68 3 -1.36 3 0 3 C0 2.01 0 1.02 0 0 Z" transform="translate(123 90)"/><path fill="#665146" d="M0 0 C-0.33 3.3 -0.66 6.6 -1 10 C-2.98 10 -4.96 10 -7 10 C-6.55090939 8.51800098 -6.09043436 7.03944764 -5.625 5.5625 C-5.36976562 4.73878906 -5.11453125 3.91507813 -4.8515625 3.06640625 C-3.73877887 0.36611937 -2.88484143 0 0 0 Z" transform="translate(31 56)"/><path fill="#3E3E1E" d="M0 0 C-2.62795276 1.40783184 -5.04634002 2.50772334 -8 3 C-8.66 2.67 -9.32 2.34 -10 2 C-10 2.66 -10 3.32 -10 4 C-7.36 4 -4.72 4 -2 4 C-2 4.33 -2 4.66 -2 5 C-5.96 5 -9.92 5 -14 5 C-14 3.68 -14 2.36 -14 1 C-4.58997722 -0.14806378 -4.58997722 -0.14806378 0 0 Z" transform="translate(14 89)"/><path fill="#383323" d="M0 0 C1.98 0 3.96 0 6 0 C6 1.98 6 3.96 6 6 C4.02 6 2.04 6 0 6 C0 4.02 0 2.04 0 0 Z" transform="translate(75 73)"/><path fill="#5D8C9B" d="M0 0 C0.66 0 1.32 0 2 0 C2 0.99 2 1.98 2 3 C2.66 3 3.32 3 4 3 C4.66 4.98 5.32 6.96 6 9 C6.66 9 7.32 9 8 9 C8.33 9.99 8.66 10.98 9 12 C8.01 12.495 8.01 12.495 7 13 C7 12.01 7 11.02 7 10 C4.03 9.505 4.03 9.505 1 9 C0.67 6.03 0.34 3.06 0 0 Z" transform="translate(0 60)"/><path fill="#3B3426" d="M0 0 C1.98 0 3.96 0 6 0 C6 1.98 6 3.96 6 6 C4.02 6 2.04 6 0 6 C0 4.02 0 2.04 0 0 Z" transform="translate(30 60)"/><path fill="#7E7B6B" d="M0 0 C1.98 0 3.96 0 6 0 C6 1.98 6 3.96 6 6 C4.02 6 2.04 6 0 6 C0 4.02 0 2.04 0 0 Z" transform="translate(94 54)"/><path fill="#C4BC9E" d="M0 0 C1.98 0 3.96 0 6 0 C6 1.98 6 3.96 6 6 C4.02 6 2.04 6 0 6 C0 4.02 0 2.04 0 0 Z" transform="translate(56 41)"/><path fill="#3E3822" d="M0 0 C1.98 0 3.96 0 6 0 C6 1.98 6 3.96 6 6 C4.02 6 2.04 6 0 6 C0 4.02 0 2.04 0 0 Z" transform="translate(75 41)"/><path fill="#BDB59A" d="M0 0 C1.65 0 3.3 0 5 0 C5.66 1.65 6.32 3.3 7 5 C6 6 6 6 2.9375 6.0625 C1.4834375 6.0315625 1.4834375 6.0315625 0 6 C0 4.02 0 2.04 0 0 Z" transform="translate(81 41)"/><path fill="#483E30" d="M0 0 C1.98 0 3.96 0 6 0 C6 1.98 6 3.96 6 6 C4.02 6 2.04 6 0 6 C0 4.02 0 2.04 0 0 Z" transform="translate(69 35)"/><path fill="#263A3F" d="M0 0 C1.98 0 3.96 0 6 0 C5.67 0.99 5.34 1.98 5 3 C4.34 3 3.68 3 3 3 C2.34 5.97 1.68 8.94 1 12 C0.67 12 0.34 12 0 12 C0 8.04 0 4.08 0 0 Z" transform="translate(62 22)"/><path fill="#20404C" d="M0 0 C1.98 0 3.96 0 6 0 C6 1.98 6 3.96 6 6 C4.02 6 2.04 6 0 6 C0 4.02 0 2.04 0 0 Z" transform="translate(75 22)"/><path fill="#B1AA90" d="M0 0 C1.66611905 -0.042721 3.33382885 -0.04063832 5 0 C6 1 6 1 6.0625 3.5625 C6.041875 4.366875 6.02125 5.17125 6 6 C4.02 6 2.04 6 0 6 C0 4.02 0 2.04 0 0 Z" transform="translate(43 79)"/><path fill="#5BB6ED" d="M0 0 C0.66 0 1.32 0 2 0 C2 3.96 2 7.92 2 12 C0.02 12 -1.96 12 -4 12 C-4.33 11.34 -4.66 10.68 -5 10 C-4.360625 9.835 -3.72125 9.67 -3.0625 9.5 C-0.83880759 8.218214 -0.83880759 8.218214 -0.51171875 6.0859375 C-0.2724022 4.06424845 -0.13106972 2.03158061 0 0 Z" transform="translate(60 22)"/><path fill="#AFD1F4" d="M0 0 C0 1.98 0 3.96 0 6 C-2.31 6 -4.62 6 -7 6 C-7 4.35 -7 2.7 -7 1 C-1.125 0 -1.125 0 0 0 Z" transform="translate(128 19)"/><path fill="#136559" d="M0 0 C1.65 0 3.3 0 5 0 C5 0.66 5 1.32 5 2 C4.01 2.495 4.01 2.495 3 3 C2.67 3.99 2.34 4.98 2 6 C1.01 6.495 1.01 6.495 0 7 C-0.33 7.99 -0.66 8.98 -1 10 C-1.66 10 -2.32 10 -3 10 C-3 8.35 -3 6.7 -3 5 C-2.34 4.67 -1.68 4.34 -1 4 C-0.34786708 1.97536745 -0.34786708 1.97536745 0 0 Z" transform="translate(123 67)"/><path fill="#655C48" d="M0 0 C0.33 0 0.66 0 1 0 C1 3.96 1 7.92 1 12 C1.99 12 2.98 12 4 12 C4 13.65 4 15.3 4 17 C3.34 17 2.68 17 2 17 C1.34 16.01 0.68 15.02 0 14 C-3.06556598 13.26656572 -3.06556598 13.26656572 -6 13 C-6 12.67 -6 12.34 -6 12 C-4.02 12 -2.04 12 0 12 C0 8.04 0 4.08 0 0 Z" transform="translate(87 54)"/><path fill="#1C3F17" d="M0 0 C3.63 0 7.26 0 11 0 C10.67 0.66 10.34 1.32 10 2 C8.88625 2.12375 7.7725 2.2475 6.625 2.375 C2.95498424 2.63329124 2.95498424 2.63329124 1.0625 5.0625 C0.711875 5.701875 0.36125 6.34125 0 7 C-1 4 -1 4 0 0 Z" transform="translate(90 71)"/><path fill="#463B2E" d="M0 0 C0 0.66 0 1.32 0 2 C1.32 2.66 2.64 3.32 4 4 C1.69 4 -0.62 4 -3 4 C-3.33 5.32 -3.66 6.64 -4 8 C-4.33 8 -4.66 8 -5 8 C-5 6.35 -5 4.7 -5 3 C-5.66 2.67 -6.32 2.34 -7 2 C-4 0 -4 0 0 0 Z" transform="translate(96 63)"/><path fill="#504B29" d="M0 0 C3.3 0.33 6.6 0.66 10 1 C10.33 1.99 10.66 2.98 11 4 C6.99799622 5.60080151 3.95443764 4.29279692 0 3 C0 2.01 0 1.02 0 0 Z" transform="translate(32 91)"/><path fill="#6CB1D3" d="M0 0 C0.99 0.495 0.99 0.495 2 1 C2 1.99 2 2.98 2 4 C2.99 4 3.98 4 5 4 C5 3.34 5 2.68 5 2 C5.66 2 6.32 2 7 2 C7 3.65 7 5.3 7 7 C5.00045254 7.04254356 2.99958364 7.04080783 1 7 C0 6 0 6 -0.0625 2.9375 C-0.041875 1.968125 -0.02125 0.99875 0 0 Z" transform="translate(113 71)"/><path fill="#DDD4B9" d="M0 0 C1.65 0 3.3 0 5 0 C5 1.98 5 3.96 5 6 C4.01 6.495 4.01 6.495 3 7 C2.01 6.67 1.02 6.34 0 6 C0 4.02 0 2.04 0 0 Z" transform="translate(69 22)"/><path fill="#60634A" d="M0 0 C0 1.65 0 3.3 0 5 C-2.31 5.33 -4.62 5.66 -7 6 C-7 4.35 -7 2.7 -7 1 C-1.125 0 -1.125 0 0 0 Z" transform="translate(89 72)"/><path fill="#323B37" d="M0 0 C1.65 0 3.3 0 5 0 C5 1.98 5 3.96 5 6 C3.35 6 1.7 6 0 6 C0 4.02 0 2.04 0 0 Z" transform="translate(88 35)"/><path fill="#557879" d="M0 0 C0.33 0 0.66 0 1 0 C1 1.65 1 3.3 1 5 C2.98 5 4.96 5 7 5 C7 7.31 7 9.62 7 12 C6.67 12 6.34 12 6 12 C6 10.02 6 8.04 6 6 C4.35 6 2.7 6 1 6 C1 7.98 1 9.96 1 12 C0.67 12 0.34 12 0 12 C0 10.02 0 8.04 0 6 C-1.98 6 -3.96 6 -6 6 C-6 5.67 -6 5.34 -6 5 C-4.02 5 -2.04 5 0 5 C0 3.35 0 1.7 0 0 Z" transform="translate(87 29)"/><path fill="#8C8671" d="M0 0 C0.33 0 0.66 0 1 0 C1 3.96 1 7.92 1 12 C2.65 12 4.3 12 6 12 C6 12.33 6 12.66 6 13 C4.35 13 2.7 13 1 13 C1 14.98 1 16.96 1 19 C0.67 19 0.34 19 0 19 C0 17.02 0 15.04 0 13 C-1.98 13 -3.96 13 -6 13 C-6 12.67 -6 12.34 -6 12 C-4.02 12 -2.04 12 0 12 C0 8.04 0 4.08 0 0 Z" transform="translate(68 22)"/><path fill="#B0A895" d="M0 0 C1.65 0 3.3 0 5 0 C5 1.98 5 3.96 5 6 C3.35 5.67 1.7 5.34 0 5 C0 3.35 0 1.7 0 0 Z" transform="translate(31 67)"/><path fill="#65BEEC" d="M0 0 C0.94875 0.04125 1.8975 0.0825 2.875 0.125 C2.875 1.115 2.875 2.105 2.875 3.125 C1.225 3.455 -0.425 3.785 -2.125 4.125 C-2.455 5.445 -2.785 6.765 -3.125 8.125 C-3.455 8.125 -3.785 8.125 -4.125 8.125 C-4.75 5.25 -4.75 5.25 -5.125 2.125 C-3.125 0.125 -3.125 0.125 0 0 Z" transform="translate(125.125 63.875)"/><path fill="#6ABBE9" d="M0 0 C2.31 0.66 4.62 1.32 7 2 C6.67 3.98 6.34 5.96 6 8 C5.34 8 4.68 8 4 8 C2 5 2 5 2 2 C1.34 2 0.68 2 0 2 C0 1.34 0 0.68 0 0 Z" transform="translate(2 61)"/><path fill="#263C42" d="M0 0 C1.98 0 3.96 0 6 0 C6 1.98 6 3.96 6 6 C4.68 6 3.36 6 2 6 C1.34 4.02 0.68 2.04 0 0 Z" transform="translate(94 41)"/><path fill="#3C3424" d="M0 0 C1.65 0 3.3 0 5 0 C5 1.98 5 3.96 5 6 C3.35 5.67 1.7 5.34 0 5 C0 3.35 0 1.7 0 0 Z" transform="translate(69 80)"/><path fill="#4D7270" d="M0 0 C0.886875 0.804375 1.77375 1.60875 2.6875 2.4375 C5.38287032 4.7039159 7.42063478 5.68417366 11 6 C11 6.66 11 7.32 11 8 C8.03 7.67 5.06 7.34 2 7 C2 6.34 2 5.68 2 5 C1.34 4.67 0.68 4.34 0 4 C0 2.68 0 1.36 0 0 Z" transform="translate(100 63)"/><path fill="#3A3426" d="M0 0 C1.32 0 2.64 0 4 0 C4 1.98 4 3.96 4 6 C2.35 6 0.7 6 -1 6 C-0.67 4.02 -0.34 2.04 0 0 Z" transform="translate(38 54)"/><path fill="#3F95AD" d="M0 0 C2.31 0 4.62 0 7 0 C7 0.33 7 0.66 7 1 C5.02 1 3.04 1 1 1 C1 2.65 1 4.3 1 6 C0.01 6.33 -0.98 6.66 -2 7 C-2.66 6.67 -3.32 6.34 -4 6 C-4 5.01 -4 4.02 -4 3 C-4.99 2.67 -5.98 2.34 -7 2 C-5.68 2 -4.36 2 -3 2 C-3 2.99 -3 3.98 -3 5 C-2.34 5 -1.68 5 -1 5 C-0.67 3.35 -0.34 1.7 0 0 Z" transform="translate(55 34)"/><path fill="#4D5130" d="M0 0 C2.31 0 4.62 0 7 0 C6.34 1.98 5.68 3.96 5 6 C4.67 5.34 4.34 4.68 4 4 C2.68 4 1.36 4 0 4 C0 2.68 0 1.36 0 0 Z" transform="translate(106 84)"/><path fill="#21392B" d="M0 0 C0.33 1.32 0.66 2.64 1 4 C-0.95689659 4.22142255 -2.91561952 4.4267568 -4.875 4.625 C-6.51082031 4.79902344 -6.51082031 4.79902344 -8.1796875 4.9765625 C-9.57574219 4.98816406 -9.57574219 4.98816406 -11 5 C-11.66 4.34 -12.32 3.68 -13 3 C-12.01 2.34 -11.02 1.68 -10 1 C-10 1.66 -10 2.32 -10 3 C-8.88625 2.7215625 -8.88625 2.7215625 -7.75 2.4375 C-5.05009037 2.00796892 -3.55368923 2.14877026 -1 3 C-0.67 2.01 -0.34 1.02 0 0 Z" transform="translate(49 43)"/><path fill="#807F5B" d="M0 0 C0.99 0.33 1.98 0.66 3 1 C3 1.99 3 2.98 3 4 C3.66 4 4.32 4 5 4 C5 4.99 5 5.98 5 7 C3.68 7 2.36 7 1 7 C1 5.68 1 4.36 1 3 C-0.65 3 -2.3 3 -4 3 C-2.68 2.67 -1.36 2.34 0 2 C0 1.34 0 0.68 0 0 Z" transform="translate(68 96)"/><path fill="#4B4729" d="M0 0 C0.99 0 1.98 0 3 0 C3 2.31 3 4.62 3 7 C1.35 7 -0.3 7 -2 7 C-1.34 4.69 -0.68 2.38 0 0 Z" transform="translate(105 96)"/><path fill="#82805F" d="M0 0 C0.99 0 1.98 0 3 0 C3.66 2.64 4.32 5.28 5 8 C3.68 8 2.36 8 1 8 C0.67 5.36 0.34 2.72 0 0 Z" transform="translate(36 96)"/><path fill="#3C3623" d="M0 0 C1.65 0 3.3 0 5 0 C5 1.65 5 3.3 5 5 C3.35 5 1.7 5 0 5 C0 3.35 0 1.7 0 0 Z" transform="translate(82 67)"/><path fill="#DBD4B1" d="M0 0 C1.65 0 3.3 0 5 0 C5 1.65 5 3.3 5 5 C3.35 5 1.7 5 0 5 C0 3.35 0 1.7 0 0 Z" transform="translate(75 29)"/><path fill="#7D7C5A" d="M0 0 C0.99 0 1.98 0 3 0 C3.33 2.64 3.66 5.28 4 8 C3.01 8 2.02 8 1 8 C0.67 5.36 0.34 2.72 0 0 Z" transform="translate(25 96)"/><path fill="#9C9A77" d="M0 0 C0.99 0 1.98 0 3 0 C3.33 2.64 3.66 5.28 4 8 C3.01 8 2.02 8 1 8 C0.67 5.36 0.34 2.72 0 0 Z" transform="translate(28 96)"/><path fill="#5F4F2C" d="M0 0 C1.65 0 3.3 0 5 0 C5 0.66 5 1.32 5 2 C5.66 2 6.32 2 7 2 C7 2.66 7 3.32 7 4 C4.69 4 2.38 4 0 4 C0 2.68 0 1.36 0 0 Z" transform="translate(19 92)"/><path fill="#4E4C31" d="M0 0 C1.65 0 3.3 0 5 0 C5 0.66 5 1.32 5 2 C7.31 2 9.62 2 12 2 C12 2.33 12 2.66 12 3 C6.06 3.495 6.06 3.495 0 4 C0 2.68 0 1.36 0 0 Z" transform="translate(88 100)"/><path fill="#8C8B64" d="M0 0 C3.465 1.98 3.465 1.98 7 4 C7 4.99 7 5.98 7 7 C5.68 7 4.36 7 3 7 C3 6.01 3 5.02 3 4 C2.01 4 1.02 4 0 4 C-0.33 3.01 -0.66 2.02 -1 1 C-0.67 0.67 -0.34 0.34 0 0 Z" transform="translate(71 96)"/><path fill="#41564F" d="M0 0 C0.33 0 0.66 0 1 0 C1 1.65 1 3.3 1 5 C0.34 5 -0.32 5 -1 5 C-1.12375 6.134375 -1.2475 7.26875 -1.375 8.4375 C-1.58125 9.613125 -1.7875 10.78875 -2 12 C-2.99 12.495 -2.99 12.495 -4 13 C-4 10.69 -4 8.38 -4 6 C-3.34 6 -2.68 6 -2 6 C-2 5.34 -2 4.68 -2 4 C-1.34 4 -0.68 4 0 4 C0 2.68 0 1.36 0 0 Z" transform="translate(23 66)"/><path fill="#534939" d="M0 0 C0.66 0 1.32 0 2 0 C2.125 6.75 2.125 6.75 1 9 C0.01 8.67 -0.98 8.34 -2 8 C-1.34 5.36 -0.68 2.72 0 0 Z" transform="translate(22 71)"/><path fill="#4A0B8C" d="M0 0 C1.77049689 -0.05410687 3.54146849 -0.09284119 5.3125 -0.125 C6.29863281 -0.14820312 7.28476562 -0.17140625 8.30078125 -0.1953125 C11 0 11 0 14 2 C8.65998179 3.33500455 5.16044765 2.512545 0 1 C0 0.67 0 0.34 0 0 Z" transform="translate(28 105)"/><path fill="#4F08A4" d="M0 0 C2.97 0 5.94 0 9 0 C8.67 0.99 8.34 1.98 8 3 C5.69 3 3.38 3 1 3 C0.67 2.01 0.34 1.02 0 0 Z" transform="translate(15 106)"/><path fill="#837D69" d="M0 0 C0.99 0 1.98 0 3 0 C3.33 0.99 3.66 1.98 4 3 C5.65 3.33 7.3 3.66 9 4 C9 4.33 9 4.66 9 5 C6.03 5 3.06 5 0 5 C0 3.35 0 1.7 0 0 Z" transform="translate(0 99)"/><path fill="#79794D" d="M0 0 C2.31 0 4.62 0 7 0 C7 1.32 7 2.64 7 4 C4.625 3.6875 4.625 3.6875 2 3 C1.34 2.01 0.68 1.02 0 0 Z" transform="translate(72 96)"/><path fill="#7F7F56" d="M0 0 C0.99 0 1.98 0 3 0 C3 2.31 3 4.62 3 7 C1.68 6.67 0.36 6.34 -1 6 C-0.67 4.02 -0.34 2.04 0 0 Z" transform="translate(19 96)"/><path fill="#414722" d="M0 0 C0.33 0 0.66 0 1 0 C1.33 2.31 1.66 4.62 2 7 C0.02 7 -1.96 7 -4 7 C-2.92598892 4.08482708 -2.22189824 2.22189824 0 0 Z" transform="translate(84 80)"/><path fill="#544728" d="M0 0 C-0.875 3.875 -0.875 3.875 -2 5 C-2.66 5 -3.32 5 -4 5 C-4.33 4.34 -4.66 3.68 -5 3 C-5.99 2.34 -6.98 1.68 -8 1 C-5.29120665 -0.35439668 -2.99066732 -0.06501451 0 0 Z" transform="translate(84 80)"/><path fill="#3E303C" d="M0 0 C2.35171131 0.59861742 4.6859378 1.26924352 7 2 C7.33 2.66 7.66 3.32 8 4 C5.03 4 2.06 4 -1 4 C-0.67 2.68 -0.34 1.36 0 0 Z" transform="translate(54 100)"/><path fill="#29270B" d="M0 0 C1.32 0 2.64 0 4 0 C4.33 1.32 4.66 2.64 5 4 C3.35 4.33 1.7 4.66 0 5 C0 3.35 0 1.7 0 0 Z" transform="translate(92 85)"/><path fill="#38696A" d="M0 0 C1.9451 2.91765 2.45276317 4.62537285 3 8 C2.360625 8.268125 1.72125 8.53625 1.0625 8.8125 C-1.33131686 9.88667752 -1.33131686 9.88667752 -2 13 C-2 11.68 -2 10.36 -2 9 C-1.34 9 -0.68 9 0 9 C0 6.03 0 3.06 0 0 Z" transform="translate(28 47)"/><path fill="#858264" d="M0 0 C0.66 0 1.32 0 2 0 C2 1.98 2 3.96 2 6 C0.68 6 -0.64 6 -2 6 C-2 4.68 -2 3.36 -2 2 C-1.34 2 -0.68 2 0 2 C0 1.34 0 0.68 0 0 Z" transform="translate(86 98)"/><path fill="#6AB4E1" d="M0 0 C2.31 0 4.62 0 7 0 C6.67 1.65 6.34 3.3 6 5 C2.83884224 3.63016497 2.0072908 3.0109362 0 0 Z" transform="translate(102 64)"/><path fill="#56503A" d="M0 0 C0.66 0 1.32 0 2 0 C2 0.66 2 1.32 2 2 C3.98 2 5.96 2 8 2 C8 2.33 8 2.66 8 3 C6.02 3 4.04 3 2 3 C2 4.98 2 6.96 2 9 C1.67 9 1.34 9 1 9 C1 7.02 1 5.04 1 3 C0.34 3 -0.32 3 -1 3 C-0.67 2.01 -0.34 1.02 0 0 Z" transform="translate(41 51)"/><path fill="#582C69" d="M0 0 C1.32 0.33 2.64 0.66 4 1 C4 1.66 4 2.32 4 3 C4.66 3.33 5.32 3.66 6 4 C2.7 4 -0.6 4 -4 4 C-2.68 3.34 -1.36 2.68 0 2 C0 1.34 0 0.68 0 0 Z" transform="translate(43 102)"/><path fill="#393016" d="M0 0 C0.33 0.99 0.66 1.98 1 3 C0.67 3.66 0.34 4.32 0 5 C-0.598125 4.814375 -1.19625 4.62875 -1.8125 4.4375 C-4.16408762 3.77906313 -4.16408762 3.77906313 -7 5 C-7 4.01 -7 3.02 -7 2 C-4.69 1.34 -2.38 0.68 0 0 Z" transform="translate(97 88)"/><path fill="#2D280D" d="M0 0 C0.99 0 1.98 0 3 0 C3 0.66 3 1.32 3 2 C3.66 2 4.32 2 5 2 C5 2.66 5 3.32 5 4 C3.35 4.33 1.7 4.66 0 5 C0 3.35 0 1.7 0 0 Z" transform="translate(99 88)"/><path fill="#B0AA90" d="M0 0 C2.31 0.33 4.62 0.66 7 1 C7 2.32 7 3.64 7 5 C5.68 5 4.36 5 3 5 C2.67 4.34 2.34 3.68 2 3 C1.34 2.67 0.68 2.34 0 2 C0 1.34 0 0.68 0 0 Z" transform="translate(49 85)"/><path fill="#0D3C0D" d="M0 0 C0.33 0.99 0.66 1.98 1 3 C1.66 3 2.32 3 3 3 C3 3.66 3 4.32 3 5 C3.61875 4.79375 4.2375 4.5875 4.875 4.375 C5.57625 4.25125 6.2775 4.1275 7 4 C7.66 4.66 8.32 5.32 9 6 C6.03 6 3.06 6 0 6 C0 4.02 0 2.04 0 0 Z" transform="translate(0 80)"/><path fill="#1F3A16" d="M0 0 C1.32 0 2.64 0 4 0 C2.92598892 2.91517292 2.22189824 4.77810176 0 7 C-0.38133299 5.0085944 -0.71325582 3.00720923 -1 1 C-0.67 0.67 -0.34 0.34 0 0 Z" transform="translate(85 77)"/><path fill="#0C4012" d="M0 0 C-2.55068845 2.35448165 -3.71017358 2.98327924 -7.25 3.1875 C-8.1575 3.125625 -9.065 3.06375 -10 3 C-10 2.34 -10 1.68 -10 1 C-3.375 -1.125 -3.375 -1.125 0 0 Z" transform="translate(104 72)"/><path fill="#550BB5" d="M0 0 C0 0.99 0 1.98 0 3 C-3.96 3 -7.92 3 -12 3 C-12 2.67 -12 2.34 -12 2 C-10.37548581 1.66430703 -8.75037083 1.3315204 -7.125 1 C-6.22007813 0.814375 -5.31515625 0.62875 -4.3828125 0.4375 C-2 0 -2 0 0 0 Z" transform="translate(128 108)"/><path fill="#82825B" d="M0 0 C0 0.99 0 1.98 0 3 C-1.65 3 -3.3 3 -5 3 C-5 2.34 -5 1.68 -5 1 C-5.66 0.67 -6.32 0.34 -7 0 C-4.3333581 -1.33332095 -2.83319697 -0.67102033 0 0 Z" transform="translate(121 97)"/><path fill="#3D4825" d="M0 0 C1.32 0 2.64 0 4 0 C4.33 1.65 4.66 3.3 5 5 C2.525 4.01 2.525 4.01 0 3 C0 2.01 0 1.02 0 0 Z" transform="translate(123 90)"/><path fill="#115622" d="M0 0 C0.99 0 1.98 0 3 0 C3.33 1.65 3.66 3.3 4 5 C2.68 5 1.36 5 0 5 C0 3.35 0 1.7 0 0 Z" transform="translate(0 71)"/><path fill="#57B3E2" d="M0 0 C0.99 0.495 0.99 0.495 2 1 C2 2.32 2 3.64 2 5 C2.99 5.33 3.98 5.66 5 6 C3.35 6.33 1.7 6.66 0 7 C0 4.69 0 2.38 0 0 Z" transform="translate(75 15)"/><path fill="#434321" d="M0 0 C1.32 0 2.64 0 4 0 C4 1.65 4 3.3 4 5 C1 4 1 4 -1 3 C-0.67 2.01 -0.34 1.02 0 0 Z" transform="translate(88 84)"/><path fill="#40342E" d="M0 0 C0.99 0.33 1.98 0.66 3 1 C2.67 2.98 2.34 4.96 2 7 C1.34 7 0.68 7 0 7 C-0.38133299 5.0085944 -0.71325582 3.00720923 -1 1 C-0.67 0.67 -0.34 0.34 0 0 Z" transform="translate(27 65)"/><path fill="#484D43" d="M0 0 C0.33 0 0.66 0 1 0 C1 2.64 1 5.28 1 8 C-0.32 8.33 -1.64 8.66 -3 9 C-2.01 6.03 -1.02 3.06 0 0 Z" transform="translate(27 57)"/><path fill="#96C3E4" d="M0 0 C2.31 0 4.62 0 7 0 C5.02 0.99 5.02 0.99 3 2 C3 2.66 3 3.32 3 4 C2.01 3.67 1.02 3.34 0 3 C0 2.01 0 1.02 0 0 Z" transform="translate(100 60)"/><path fill="#56523D" d="M0 0 C1.98 0.99 1.98 0.99 4 2 C4 2.66 4 3.32 4 4 C4.66 4.33 5.32 4.66 6 5 C5.01 6.485 5.01 6.485 4 8 C3.34 6.35 2.68 4.7 2 3 C1.34 3 0.68 3 0 3 C0 2.01 0 1.02 0 0 Z" transform="translate(31 50)"/><path fill="#3C342B" d="M0 0 C1.98 0.99 1.98 0.99 4 2 C4 2.99 4 3.98 4 5 C2.68 5 1.36 5 0 5 C0 3.35 0 1.7 0 0 Z" transform="translate(75 23)"/></svg>